<svg xmlns="http://www.w3.org/2000/svg" viewBox="0 0 77.18 81.39"><defs><style>.cls-1{isolation:isolate;}.cls-2{opacity:0.4;mix-blend-mode:multiply;}.cls-3{fill:#fff;}</style></defs><title>arrow1</title><g class="cls-1"><g id="Ebene_1" data-name="Ebene 1"><g class="cls-2"><path d="M32.92,44.26a8,8,0,0,0,11.34,0h0L74.84,13.68A8,8,0,0,0,63.5,2.35L38.59,27.26,13.68,2.35A8,8,0,1,0,2.35,13.68L32.92,44.25Z"/><path d="M44.26,79h0L74.84,48.46A8,8,0,0,0,63.5,37.13L38.59,62,13.68,37.13A8,8,0,1,0,2.35,48.46L32.92,79h0a8,8,0,0,0,11.34,0Z"/></g><path class="cls-3" d="M32.92,44.26a8,8,0,0,0,11.34,0h0L74.84,13.68A8,8,0,0,0,63.5,2.35L38.59,27.26,13.68,2.35A8,8,0,1,0,2.35,13.68L32.92,44.25Z"/><path class="cls-3" d="M44.26,79h0L74.84,48.46A8,8,0,0,0,63.5,37.13L38.59,62,13.68,37.13A8,8,0,1,0,2.35,48.46L32.92,79h0a8,8,0,0,0,11.34,0Z"/></g></g></svg>