<svg id="Ebene_1" data-name="Ebene 1" xmlns="http://www.w3.org/2000/svg" viewBox="0 0 50 50"><defs><style>.cls-1,.cls-2{fill:#efefef;}.cls-2{fill-rule:evenodd;}</style></defs><title>facebook</title><path class="cls-1" d="M25,0A25,25,0,1,1,7.32,7.32,24.94,24.94,0,0,1,25,0ZM41.31,8.71A23.08,23.08,0,1,0,48.05,25,23,23,0,0,0,41.31,8.71Z"/><path class="cls-2" d="M26.91,19.89V17.84A1.07,1.07,0,0,1,28,16.63H30.9V12.25H27c-4.39,0-5.37,3.24-5.37,5.34v2.3H19V25h2.58V37.76h5.11V25H30.5l.16-2,.31-3.1Z"/></svg>