<svg id="Ebene_1" data-name="Ebene 1" xmlns="http://www.w3.org/2000/svg" viewBox="0 0 26.48 16.92"><defs><style>.cls-1{fill:#262626;}</style></defs><title>googleplus</title><path class="cls-1" d="M27.55,23.26h-7.1c-.11,0-.28.13-.28.2V26.7h4.49a2.39,2.39,0,0,1-.15.54,4.33,4.33,0,0,1-5.08,2.68,4.93,4.93,0,0,1-4.09-5.66,1.85,1.85,0,0,1,0-.23,4.59,4.59,0,0,1,.33-1.15,5,5,0,0,1,5.54-2.79,4.48,4.48,0,0,1,2.11,1.1l2.48-2.48a.91.91,0,0,1-.21-.18,8,8,0,0,0-6.84-1.87,8.5,8.5,0,0,0-6.93,9.81A9.5,9.5,0,0,0,12.29,28a8.52,8.52,0,0,0,8.9,5.35,7.51,7.51,0,0,0,4.89-2.28,8.64,8.64,0,0,0,2.14-7.32c0-.46-.23-.54-.66-.54Zm8.37.26h-.55V20.87c0-.11-.14-.32-.2-.32h-2V23.5h-3V24c0,.53,0,1.07.09,1.59.51,0,1,.06,1.56.06h1.34v2.91h2.15V25.68h2.91V23.52Z" transform="translate(-11.74 -16.52)"/></svg>