<svg id="Ebene_1" data-name="Ebene 1" xmlns="http://www.w3.org/2000/svg" viewBox="0 0 50 50"><defs><style>.cls-1,.cls-2{fill:#262626;}.cls-2{fill-rule:evenodd;}</style></defs><title>instagram</title><path class="cls-1" d="M25,0A25,25,0,1,1,7.32,7.32,24.92,24.92,0,0,1,25,0ZM41.31,8.71A23.08,23.08,0,1,0,48.05,25,23,23,0,0,0,41.31,8.71Z"/><path class="cls-2" d="M18.6,25A6.41,6.41,0,1,1,25,31.41,6.41,6.41,0,0,1,18.6,25Zm13-12.53H18.4a5.94,5.94,0,0,0-5.93,5.93V31.62a6,6,0,0,0,5.93,5.92H31.62a5.94,5.94,0,0,0,5.92-5.92V18.4a5.93,5.93,0,0,0-5.92-5.93ZM18.4,14H31.62a4.45,4.45,0,0,1,4.44,4.45V31.62a4.44,4.44,0,0,1-4.44,4.44H18.4A4.45,4.45,0,0,1,14,31.62V18.4A4.46,4.46,0,0,1,18.4,14Zm14.53,1.87a1.3,1.3,0,1,0,1.3,1.3,1.3,1.3,0,0,0-1.3-1.3ZM33.08,25A8.08,8.08,0,1,0,25,33.08,8.08,8.08,0,0,0,33.08,25Z"/></svg>