<svg id="Ebene_1" data-name="Ebene 1" xmlns="http://www.w3.org/2000/svg" viewBox="0 0 492.96 335.58"><defs><style>.cls-1{fill:#262626;}</style></defs><title>kohphanganlogo</title><path class="cls-1" d="M261.14,63.87c6.74-27.1-7.31-43.81-36.18-46.46,6.8,8.64,13.31,17.49,24.17,23.12-2.7-.46-5.37-.93-7.35-.42,1.9,7.2,4.92,14.47,8.86,19.69.49,3.42-1.81.88-1.81.88-10.11-26.26-55.74-20.58-63.66-2C191.53,58,198,57.49,206,59c4.27-2.4,11.15-5.5,15.56-5.09-2.3,1.64-4.82,3-5.69,6.56,9.63,2.5,17.43,7.63,25.63,4.14a38.82,38.82,0,0,1,2.72,3,8.71,8.71,0,0,1,1.24,2.8c-2.39,3.48-6.47,4.81-9.7,5.81-25.5,7.94-34.78,49.05-20.2,72.42,2.16-8.44,3.8-17.57,7-24.55-.61-5.21-2.84-12.33,0-18.17.56,3.29,1.43,6.35,4.19,8,3.61-9.07,11.36-14.52,9.38-26.89,3.13.61.28,5.67,3.07,6.52,1.71-3,3.58-5.71,6.45-7.12a14.57,14.57,0,0,1,3.6,2.9,3.23,3.23,0,0,0,1.9.77c4.31,21,17.44,94.83-4.65,117.73a77.1,77.1,0,0,0-25.67.29C203.28,111.45,123.72,78.8,98.05,70.7c.54-.93,1-1.79,1.46-2.49,2.63-1.89,7.88,1,8.57-1.49.14-3.28-4.61-3.95-4.12-6.45,11.21,9.5,23.32,10.42,35.56,10.39-1.73-3.59-4.52-7.3-5.47-10.79,6.3,4.8,12.71,8.55,18.69,16.4,10.07,1.35,19.4,9.73,29.48,10.94-23.79-40.44-59.91-56.68-94.53-32.27a11.38,11.38,0,0,1-2.51-4.67,6.35,6.35,0,0,1,.62-5.75c11.43-1.84,15.74-10.35,24.32-19.65-2.14-2.5-10.43-1-8.59-3.92,4.87-2.87,13.25-.88,19.63-3.92,8.06-3.84,14.27-11.29,21.32-14-26.4-11.77-74.35,11.81-68,46.27C55,19.77,27.28,18.52,0,43.22c13.9,1.07,27.77,2.59,42.36-2.72-2.76,2.12-5.5,4.23-6.71,6.5,8.36,4.42,17.73,7.84,26,8.65,3.61,2.47-.73,2.45-.73,2.45C27.7,45-6.18,92.47,4.32,115.8c4.84-6.51,10-13,18.25-19.1C24,90.64,27,81.55,31.18,77.78c-.44,3.55-1.35,7.07,1.25,11C43,81.89,54.51,79,58.3,68.35c1.81-.14,5.13,0,5.13,0a11.07,11.07,0,0,1,3.7,1.25c1.18,5.21-1.08,10.18-2.91,14.06-14.51,30.62,15.93,74.61,50.27,81.06-6-9.26-13.13-18.62-16.9-27.63-5.39-3.91-14-7.94-17-15.63,3.56,2.32,7.17,4.14,11.09,3-5.36-11.18-3.79-23.1-17-31.87,3.26-2.39,5.53,4.6,8.72,2.73-1.3-4.13-2.26-8.25-1.1-12.13a18.6,18.6,0,0,1,5.79-.88c1.55,0,3.3-1.66,5-3.9,20.84,6.15,101.71,35.93,119,131.34l4.37-.79a70.87,70.87,0,0,0-15,5.11l1.82-1.27c-11.8-16.94-36.09-26.5-50.18-30.83a9.65,9.65,0,0,1,.16-1.16c2.31-1,4.93-.73,7.59-.25.9-2.13-3.6-3-2.37-5.18,6.46,7.52,13.71,5.62,21,8.07.41-2.52-1-4.61-2.71-6.63,5,1.24,8.16,6.25,11,9.28,5.87,1.63,12.21,5.3,18.4,8.32-6.66-20.77-36.23-36.18-54.06-24.82-2.27,1.43-5.15,3.23-8.48,2.88a6.66,6.66,0,0,1-1-2.18,29.57,29.57,0,0,1-.42-3.17c6.3-3.18,7.19-10.5,10.6-17.61-2.6-1.3-4.71-.46-6.88.09,2-2.88,7.41-5.43,11-6.8a53.17,53.17,0,0,1,10.4-12.77c-15.24-4.7-42,20-31.3,39.51,0,0,.35,2.68-1.46.63-1.15-5-4-10.58-7.36-15.41-1.33.92-2.42,2.77-3.51,4.65,2.15-9.44.13-17.91-1.61-26.42-13.17,18.8-10.25,35.82,9.56,45.6-21.81-1.25-32.68,30.26-23.35,45.68,1.11-4.55,5.24-9,7-14.27,1.39-4.2-.49-9.22.9-12.46,1.65-1.35,1.39,3.88,3.09,5,5.09-6,10-9.36,10.27-16.59a4.06,4.06,0,0,1,3.51-.82,7,7,0,0,1,3.09,1.19c-12.42,23.33.44,44.42,27.3,56-1.52-6.15-7.43-11.26-9-17.4-5.32-3.08-8.14-6.77-11.6-10.29,2.24.31,4.74,1.75,7.1,2.55-.94-7.57-2.44-15-9.18-21.21,1.5-.48,2.28,2.41,4.3,2.07,1.48-.63-.71-3.65.25-5.43,1.84-1.43,5.53-4,7.12-6.19,13.57,4.29,36.21,13.36,47,28.66-40.63,21.1,95.45,3.9,52-6.27,21.05-26.53,8.73-96.79,4.2-118.81,2.84-.4,5.93-1.19,7.85-1.58,2.5.51,3.63,5.09,5.43,4.17,2-1.66-.16-4.78,1.54-5.82.48,11.57,6.41,19.08,13,26.15,1.16-2.91,1.81-6.5,3.34-8.92.57,6.22,1.81,11.94.45,19.59,4.59,6.56,4.71,16.44,9.39,22.94,10.75-35.38.92-65-31.72-72a8.89,8.89,0,0,1,1.38-3.94A5,5,0,0,1,270,67.87c7.16,5.64,14.41,3.61,24.39,3.62.29-2.58-5-6.6-2.32-7.08,4.26,1.31,7.57,7.23,12.74,9.31,6.54,2.61,14.17,2.25,19.48,4.91C317,57,277.75,41.81,261.14,63.87Z"/><path class="cls-1" d="M326.31,169.74a3,3,0,0,0-.23.65A3.21,3.21,0,0,1,325,172c-.42.48-.73.93-1.15,1.41s-.73.72-1,1.08a7,7,0,0,0-.75,1.44,1.86,1.86,0,0,1-1.34,1,.61.61,0,0,0-.52.59.59.59,0,0,1-.23.75c-.4.17-.6.1-.79-.18,0-.1-.09-.09-.09-.09l-.63.71a.29.29,0,0,1-.09-.19,13.68,13.68,0,0,1,.94-1.17,1.07,1.07,0,0,0-1.11.58c-.11.22-.31.36-.42.58-.1,0-.21.23-.22.34a1.67,1.67,0,0,1,.17.68c.09.3-.12.53-.13.84.1-.12.2-.13.41-.27a13.61,13.61,0,0,0-.58,1.93A9.13,9.13,0,0,1,317,181c-.83.74-.17,1.46-.59,2-.49-.13-.59,0-1.13,1,.09.09.2.07.29.16l-.95,1.37c-.21.33-.52.58-.91.44l-.3,0a4.08,4.08,0,0,1-2.41.46c.47.64,1,1.27.3,2.29a1.66,1.66,0,0,1,.78.4c-.26-.88-.26-.88.83-.94a2.23,2.23,0,0,0-.32.66c.41-.37.5-.18.69,0a3.44,3.44,0,0,1,1.64,1.18,6.66,6.66,0,0,1,1.59,2.22,9,9,0,0,0,1.32,1.74c.19.28.26.78.45,1.16.09.09.09.19.18.28.58.43,1.25,1,1.83,1.37.29.27.68.31,1,.58a.74.74,0,0,1,.48.34c.28.58.55,1.15.92,1.81a1.26,1.26,0,0,0-.12.43c0,.1,0,.41.08.4s.4,0,.5,0c.31-.25.41-.26.6-.08.38.45,1,.68,1,1.39a.27.27,0,0,0,.2.07,4.79,4.79,0,0,1,.31-.45c.44,1.37,1.7,2.12,1.94,3.62.59,0,.17.49.15,1-.58-.33-1-.69-1.54-1a7.25,7.25,0,0,0,.16.79,1.72,1.72,0,0,0,.17.7c-.29-.27-.57-.64-1.17-.45a1.91,1.91,0,0,0-.14.83,2.44,2.44,0,0,0-1.26,1.71c-.12.43-.23.64-.63.7-.1,0-.21.23-.21.33s.09.3.08.5,0,.52-.42.57c-.2,0-.41.16-.61.19a.11.11,0,0,0-.1.11c.09.19.28.27.48.45a.7.7,0,0,1,.18.38c-.12.33-.23.65-.34,1a.34.34,0,0,1-.3-.06c-.33.86-.77,1.73-1.2,2.71-.29-.27-.68-.52-1.06-.88s-.68-.42-1.1.15a2.49,2.49,0,0,1-1.13.76c-.7.3-.92.63-.74,1.22.09.09.09.09.09.19s-.2-.08-.3-.06c-.51.37-.79,0-1-.28-.57-.64-1-1.29-1.51-1.84a1.17,1.17,0,0,0-1.18-.35,1.52,1.52,0,0,1-.69-.11.24.24,0,0,1-.19-.07c-.61.18-.89-.09-1-.58,0-.11,0-.11-.1-.09a8.11,8.11,0,0,0-1.64-1.1.43.43,0,0,1-.27-.67,6.78,6.78,0,0,0,.68.41c.1.09.3.06.39.15,0-.2.12-.42,0-.61a4.3,4.3,0,0,0-.67-.72c-1-1.08-2-2-3-3.05A17.17,17.17,0,0,1,305,206.1L303.85,205c-.09-.19-.08-.39-.18-.48s0-.31-.08-.29c-.8,0-.76-.81-1.14-1.16-.2-.17-.29-.36-.48-.54a18.39,18.39,0,0,1-1.43-1.31,14.12,14.12,0,0,1-.73-1.41c0-.1-.1-.19-.19-.28l-.2,0a5.92,5.92,0,0,0,.14,1.4c.28.36.76.69,1,1.06a2.72,2.72,0,0,1,.57.63c0,.1-.11.21-.21.43.09.09.29.16.38.25-.21.33-.5.17-1.25-.83a1.79,1.79,0,0,0-.22.53,28.32,28.32,0,0,1-.23,2.86,15.79,15.79,0,0,1-.29,2.27.46.46,0,0,1-.11.21c-.5.07-.32.55-.53.78s-.12.52-.24.84l.3,0a4.62,4.62,0,0,0,.27.67c0,.31.18.48-.13.83-.31.14-.23.74.06.9a.68.68,0,0,0-.22.33c.3.06.6.12.69.31a2,2,0,0,1,.06.8c-.56-.83-1.46-.61-2.25-.7-.1,0-.31.24-.42.36-.11.42-.23.73-.34,1.15a1.32,1.32,0,0,1-.49-.34c-.32.65-.64,1.2-1,1.75-.39-.35-.5,0-.61.28a4.45,4.45,0,0,0-.15,1.13c0,.4,0,.71-.53.78a2.67,2.67,0,0,0-.14.82c-.19-.07-.19-.18-.29-.16-.4.15-.64,1-1.32.78a.12.12,0,0,1-.11.11c-.22.53-.32.55-.6.18-.48-.44-.88-.38-1.2.16a1.41,1.41,0,0,1-1.42.59c-.19-.07-.48-.23-.68-.31-.32.65-.73.8-1.22.67a.67.67,0,0,1-.37-.55c-.18-.58-.67-.72-1.18-.25a1.16,1.16,0,0,1-.45-1c0-.2-.48-.43-.67-.71l-.38-.35c-.09-.19-.19-.27-.28-.46s-.28-.46-.27-.67c.05-1.1,0-2.2.05-3.3a5.13,5.13,0,0,1,.47-1.67,8.09,8.09,0,0,0,.39-2.16c0-.4,0-.91.06-1.31,0-.6,0-1.11.07-1.71,0-.2,0-.41,0-.71s.23-.63.72-.6c-.09-.19-.08-.39-.18-.48a.86.86,0,0,1-.45-1,2.39,2.39,0,0,0-.16-.87,10.91,10.91,0,0,1,.4-4.67c0-.2.32-.45.33-.65a5.57,5.57,0,0,0,.25-1.24,22,22,0,0,1-.18-2.57c.06-1.42.22-2.84.28-4.26s0-2.7.08-4a8.27,8.27,0,0,1,.26-1.64.68.68,0,0,1,.22-.33c-.28-.46-.87-.67-.73-1.49,0-.41,0-.71-.36-1a1.11,1.11,0,0,0-.08-.49,4.78,4.78,0,0,0,1,.55c0-.3-.07-.59-.06-.89a4.69,4.69,0,0,1-.05-1.1,2.33,2.33,0,0,0-.06-.79c-.09-.29-.08-.59-.16-.88s-.19-.37-.28-.55a3.45,3.45,0,0,1,.53-.69l.09.09c.32-.45.12-2.63-.37-2.85a.7.7,0,0,0,.14-1c0-.21.23-.54.34-1,0,.1-.1,0-.19-.07a.12.12,0,0,0,.1-.12c.5-.08.61-.2.32-.55-.08-.29-.17-.47-.26-.76,0,0,.31-.35.41-.37.6,0,.7-.11.83-.73,0-.1,0-.2,0-.31a1.64,1.64,0,0,1,.86-1.54.94.94,0,0,0,.22-.54c-.18-.37.23-.64.44-.87.41-.37.82-.64.94-1.16l.68-1.92c.79.07,1.38.08,1.63-1a3.57,3.57,0,0,0,.68.19,1.91,1.91,0,0,0-.41.37c-.1.12-.21.23-.21.23s.19.17.29.16a.7.7,0,0,0,.82-.44c.11-.42.22-.54.5-.18.11-.22.11-.32.22-.44a1.41,1.41,0,0,1,.51-.49c0,.21.09.39.08.49s-.31.36-.42.58c.47.62,1.17.51,2,.58-.07-.59.23-.84.73-.82.1.08.09.29.18.37a.31.31,0,0,0,.4,0c.3-.15.51-.39.81-.54.23-.64.53-.79,1.22-.5a.31.31,0,0,0,.29,0c.51-.39.6,0,.78.28s.38.54.79.07l.1.08c-.11.22,0,.51-.13.63a6.16,6.16,0,0,1-.73.83c-.21.33-.11.42.18.47s.4,0,.59.11a10.41,10.41,0,0,0,.84-1.15c0,.21,0,.41.08.49a.57.57,0,0,0,.39.14c.3-.05.51-.18.71-.21.41-.27.6-.1.48.32s-.33.87-.46,1.39a3.73,3.73,0,0,0-.34,1.07c0,1,0,2,.07,3a.73.73,0,0,0,.08.29,1.78,1.78,0,0,0,.51-.28c.05,1.31.09,2.62,0,3.94s-.11,2.65-.07,4l.1,0a19.83,19.83,0,0,0,1.46-1.54,30.93,30.93,0,0,0,2.39-2.6,4.82,4.82,0,0,0,.63-.81c.41-.37.93-.75,1.34-1.12.72-.62,1.44-1.25,2.16-1.77.31-.35.82-.63.85-1.25a.39.39,0,0,0,.2-.13,17.85,17.85,0,0,0,3.57-2.2,11.58,11.58,0,0,1,2.24-1.48,8.71,8.71,0,0,0,2.57-2,5.27,5.27,0,0,0,1.13-.9,6.94,6.94,0,0,0-.23.75c.61-.3.61-.3.84-1.16.2.07.3.16.49.23.4-.06.82-.54,1-1.09a.82.82,0,0,1,.82-.74c-.42.68-.74,1.24-1.06,1.7v.11l.61-.41.09.09-.21.24a.5.5,0,0,0-.11.32.34.34,0,0,0,.3.06c.29.05.69.09,1,.15s.41-.17.61-.2.08.29.17.58a2.38,2.38,0,0,1,.81-.33c0,.82.58.31.88.27,0,.2,0,.31,0,.51a4.47,4.47,0,0,1,.92-.55c-.12.32,1.08.13.15,1,.49.12.88.27,1.37.39-.2,0-.3,0-.4.17-.3.15-.42.48-.13.64a.93.93,0,0,0,.29.36c-.21.14-.31.26-.51.29h-.1a1.14,1.14,0,0,1-.39-.24,1.13,1.13,0,0,0-.22.44c.07.71.24,1.4.31,2.11,0,.1,0,.31,0,.41s0,.31,0,.41a3.93,3.93,0,0,1,.6-.19c-.21.24-.42.47-.52.49-.79,0-1.21.6-1.54,1.27a.72.72,0,0,1-.71.31,5.94,5.94,0,0,0,.73-.83.16.16,0,0,0-.19-.17,12.28,12.28,0,0,1-1,.87c.1.09.1.09.09.19l.4-.06C326.9,169.86,326.69,170.09,326.31,169.74Zm-24.52,4.85c0-.3-.08-.59-.06-.9l-.3.05a2.44,2.44,0,0,0,.16.88ZM305,208.32a16.44,16.44,0,0,0-1.13-1.46l.11-.12C304.36,207.2,305,207.41,305,208.32Zm3.44,3.18c-.5.07-2.88-2.34-3.05-3,0-.1,0-.1.11-.11C306.45,209.34,307.5,210.41,308.44,211.5Zm4.14-24.66a6.09,6.09,0,0,0,.87.38,2.53,2.53,0,0,1-.42.67C312.74,187.63,312.36,187.38,312.58,186.84Zm3.83-6.07v.1c.2-.13.4-.16.5-.28s0-.21-.07-.5A7.32,7.32,0,0,0,316.41,180.77Z"/><path class="cls-1" d="M379.74,166.75c.17.71.34,1.31.51,2a1.74,1.74,0,0,0,.37.57c-.1,0-.1.12-.2.14-.09-.2-.28-.38-.37-.58a8.51,8.51,0,0,1-.76-1,1.8,1.8,0,0,1-.16-.72c.32-.68-.17-.92-.34-1.42a1.3,1.3,0,0,0-.36,1.43,8.79,8.79,0,0,1,1,2.8,14.61,14.61,0,0,0,0,2.1,2.47,2.47,0,0,1-.06,1.48c-.11.13.09.31.08.41,0,.64-.06,1.38-.08,2,0,.84,0,1.78,0,2.63-.15,1.29-.21,2.66-.36,4a23.91,23.91,0,0,1-.85,3.59c-.25,1.2-.59,2.3-.94,3.5a15.14,15.14,0,0,1-1.95,4s0,.11-.2.13c.11-.33.12-.54.23-.87s.34-.89.46-1.43c0-.1-.09-.2-.09-.3-.1.12-.2.13-.31.25s0,.11-.1.12c-.7,2.52-2.57,4.34-3.95,6.53-.11.22-.32.46-.42.68s-.42.48-.52.49a2.49,2.49,0,0,0-1.64,1.27,2.38,2.38,0,0,1-1.74,1.18,2.5,2.5,0,0,1,.57.55l-.83.95a5.33,5.33,0,0,1-1.12.56.13.13,0,0,1-.2,0c0-.1,0-.32,0-.32.2-.13.41-.36.61-.49a1.87,1.87,0,0,1,.42-.48c.1-.12.31-.25.31-.35s0-.22-.09-.2a.71.71,0,0,0-.4.16c-1.13.78-2.26,1.66-3.48,2.34a10.75,10.75,0,0,1-2.33,1.15,3.1,3.1,0,0,1-.91.22c-.2,0-.4.26-.7.31a3.42,3.42,0,0,1-.91.32c-.5.07-.9,0-1.4.09s-.79,0-1.19.05-.8.11-1.21.47a1.49,1.49,0,0,1-.61.19,21.76,21.76,0,0,0-2.68-.06c-.8.21-1.27-.45-2-.47-.3,0-.6,0-1,0a3.71,3.71,0,0,1-1.58-.3c-.38-.26-.76-.73-1.38-.13,0,.11-.3.15-.4.06-.88-.3-1.66-.61-2.54-1-.29-.17-.69-.22-.77-.73,0-.1-.09-.09-.29-.16a22.67,22.67,0,0,1-2.35-.82c-.17-.7-.76-.72-1.25-.86s-.76-.92-1.46-.83l-.09-.09c-.38-.46-.66-.94-1-1.4-.18-.28-.47-.55-.66-.83,0-.11-.09-.09-.19-.18-.26-.89-.62-1.77-1-2.74-.08-.4-.27-.79-.35-1.19a18.64,18.64,0,0,1-.63-6.28c0-.31-.17-.59-.16-.9.14-1.05.28-2,.43-3,0-.42.13-.74.15-1.15a6.49,6.49,0,0,1,.55-1.22c.24-1.06.58-2,.92-3.12s.38-1.9.62-2.87a2.93,2.93,0,0,1,0-.93,9.31,9.31,0,0,0,.59-2.35,1,1,0,0,1,.23-.55,1.73,1.73,0,0,0,.34-1.19c0-.1,0-.2,0-.41.21-.34.33-.77.54-1.12a11.28,11.28,0,0,1,.75-1.14c.21-.44.43-.79.64-1.23,1.17-1.63,2.23-3.34,3.3-5.06a15,15,0,0,1,3.11-3.28c.82-.54,1.63-1.09,2.45-1.53a3.39,3.39,0,0,1,.8-.33c.2.07.49.23.48.44,0,.42.26.89-.26,1.39-.1,0-.11.33-.12.54a3.8,3.8,0,0,1,.51-.19,11,11,0,0,1,1.33-1,6,6,0,0,0,1.23-.92c.94-1.08,1.84-1.33,2.7-.53a2.45,2.45,0,0,0,1.77.55l3.19-.51a2.48,2.48,0,0,0,.9,0,10.34,10.34,0,0,0,1.8-.28,9,9,0,0,1,3.69-.48,27.76,27.76,0,0,1,2.88-.14,5.75,5.75,0,0,1,2,.32,29.2,29.2,0,0,1,2.95.69l.09.09a37.84,37.84,0,0,1,4,2.32,11,11,0,0,1,3.39,4.64,1.94,1.94,0,0,1,.27.49c.1.09.09.3.18.5C379.78,165.79,379.66,166.23,379.74,166.75Zm-29.69,21.4a3.06,3.06,0,0,0-.68-.42c0,.1,0,.1-.11.22a3.41,3.41,0,0,1,.17.81A3.53,3.53,0,0,1,350.05,188.15Zm3.9-12.51a8.56,8.56,0,0,1-.63-1.47c-.19-.28-.38-.56-.78-.4s-.52.49-.53.81c-.22.55-.24,1.07-.47,1.62a35.81,35.81,0,0,0-1.28,7c-.12.44.07.62.47.45s.81-.22,1.21-.28l1.8-.26c.3,0,.59.12.89,0,1.11-.48,2.23-.95,3.44-1.44l.41-.48c.15-1.16.3-2.23.54-3.31,0-.42.13-.85-.35-1.2l0-.41L359,175c.12-.54-.05-1-.35-1a7.87,7.87,0,0,0-1.6.14c-.2,0-.29-.17-.38-.26-.47-.65-1.47-.5-2,.41.38.36,1-.36,1.28.22-.5.28-.91.55-1.32.82l.29.27C354.42,176.19,354.22,176.22,354,175.64Zm-.09,9.26a.18.18,0,0,0-.19-.18c-.3,0-.6.19-.8.22s-.32.36-.32.46c.29.27.08.51-.14.85a.63.63,0,0,0-.11.43c.17.71.06.93-.74,1-.31.14-.61.19-.91.33.59.23,1.17.46,1.86.67.2.08.49.24.59.13.51-.39,1-.78,1.54-1.26.21-.24.12-.54-.27-.59a1.51,1.51,0,0,0-.7,0c.22-.45.44-1,.66-1.45C353.93,185.51,353.64,185.35,353.86,184.9ZM358.28,167c-.19-.07-.28-.27-.38-.36a3.16,3.16,0,0,0-2.38-.05,3.34,3.34,0,0,0-1.93,1.13c-.32.46-.83.75-1.24,1.23-.21.24-.62.51-.33.78a4.83,4.83,0,0,0,1.18.23c.09.09.2,0,.3-.15.31-.36.73-.73,1-1.09a.55.55,0,0,1,.4-.17,2.2,2.2,0,0,0,.71-.31c.41-.17.82-.65,1.23-.82a6.51,6.51,0,0,1,1.29-.2C358.18,167.09,358.28,167.07,358.28,167Zm-3,17.1-.32.36.1.19a5.73,5.73,0,0,1,.87.5c.48.35.78.3,1.11-.37a.82.82,0,0,1,.11-.43c.13-.54,0-.63-.47-.56A6.4,6.4,0,0,1,355.29,184.07Zm4.27-16.67a.82.82,0,0,0-.12.54l.3-.05c0-.2,0-.31,0-.52Zm8.56,35.13v.21l-.6.08s0-.1,0-.21Z"/><path class="cls-1" d="M382.73,202.48c0-.63.06-1.38.08-2a2,2,0,0,0-.24-1.34c-.28-.39-.15-1.14-.13-1.67.15-1.18.3-2.36.44-3.54.54-3.35-.13-6.42-.09-9.7s.08-6.87.22-10.26c0-2.22.38-4.39.57-6.52a8.63,8.63,0,0,1,.06-1.6c.36-1.32.71-2.64,1.07-4.06a19.46,19.46,0,0,0,.53-3.36,11.7,11.7,0,0,1,1.37-4.34,7.34,7.34,0,0,0,.77-1.81c.11-.33.32-.58.51-.4.28.38.69.22,1.08.26a2.29,2.29,0,0,1,1.54,1.35.29.29,0,0,1,.09.19c.19.08.29.17.48.25a4.56,4.56,0,0,0,.13-.55c0-.21-.09-.41-.08-.63h.1c.28.38.56.86.94,1.44.1-.12.3-.15.5-.29.41-.27.81-.23.79.2a3.67,3.67,0,0,1,0,1.47c-.23.68.06.95.55,1.19,0-.32,0-.53,0-.64.3,0,.61-.2.8-.12a1.5,1.5,0,0,1,.57.66c.1.09-.11.33-.22.56a1.57,1.57,0,0,0-.21.35c.47.46.64,1.18,1.34,1.18.1,0,.19.18.18.29.09.41.17.82.25,1.23a2,2,0,0,0,.07.74c.21-.35.32-.48.53-.83.07.63.06,1.06.14,1.58s0,1.17-.07,1.71.17.5.58.34a25.76,25.76,0,0,1,2.72-.94c.8-.23,1.61-.56,2.41-.79.11-.12.3-.05.5-.08a1.62,1.62,0,0,1,0,.22c-.3.15-.51.29-.81.44s-.41.38-.23.67a.71.71,0,0,1,.19.4c-.11.12-.31.26-.41.17-.89-.08-1.52.76-2.22,1a.72.72,0,0,0-.31.26,2.7,2.7,0,0,0,2.38.18,2.45,2.45,0,0,1,.89.08c.1,0,.19.08.29.06a7.58,7.58,0,0,0,1.5-.11c.5-.08.6-.2.63-.84.15-1.42.21-2.81.37-4.33,0-1,.28-2.07.43-3.16.37-1.77.64-3.62.91-5.37.12-.56,0-1.08.16-1.52a9.29,9.29,0,0,1,.56-1.48c.21-.35.51-.4.6-.1.6-.2,1.11-.38,1.81-.6,0-.32.13-.66.13-.88s.12-.44.42-.38c.09.09.19.08.39.15l.09.09c.41-.17.91-.25,1.12-.49s.5-.3.6-.1.18.29.27.5a.68.68,0,0,1,.19.4c.2-.14.5-.3.51-.41.12-.55.32-.47.72-.54.59-.09,1.08.26,1.69-.16a.31.31,0,0,1,.29.06c.3.18.58.45.87.62a1.11,1.11,0,0,1,.08.53c0,.43,0,.65.48.35.21-.25.51-.18.81-.34,0,0,0,.11,0,.22-.13.88,0,1,.66,1s.78.31,1,.71c0,.11,0,.32.09.42.48.25.59.12.82-.67.18.3.37.48.47.68a7.74,7.74,0,0,1,.3,2.22c-.15,1.31,0,2.58-.06,4-.07,1.73-.14,3.47-.31,5.21-.19,2.18-.67,4.41-.67,6.66,0,.54-.14,1.21-.17,1.75a2.55,2.55,0,0,0,0,.87l0,.65-.1.12c.27.6-.25,1.22-.48,1.89-.1.23,0,.44,0,.76s0,.87,0,1.3-.14,1.09-.26,1.65c-.22.35-.24,1-.75,1.29,0,0,0,.11-.11.12.59.13.69.23.37.81a3.81,3.81,0,0,0-.54,1.15c.1-.12.2-.14.4-.27,0,.32,0,.64,0,1.08-.2-.08-.4-.06-.59-.14-1.35,1.37-.6,2.45-.25,3.58,0,.11.2.08.3.18s.09.2.18.4a.52.52,0,0,1-.11.23c-.2,0-.3,0-.4-.05s-.29-.17-.4.16a5.41,5.41,0,0,1-.43.81c-.21.35-.23.68-.44,1s-.32.58-.44.92a3.4,3.4,0,0,0-.33.9c-.33.9-.46,1.67-.8,2.58,0,.21-.42.48-.62.72l-.21.25a7.18,7.18,0,0,1-.72.52c-.51.18-.7.2-.83.86a1.5,1.5,0,0,0-.29-.18,17.09,17.09,0,0,1-1.54,1.28,1.22,1.22,0,0,1-.61.19c-.1,0-.3.15-.4.16a4.5,4.5,0,0,1-2.34,1.38,3.79,3.79,0,0,0-.82.53,9.36,9.36,0,0,1-1.63,1c-.2.13-.49-.15-.58-.35-.47-.8-.83-1.71-1.29-2.5s-.72-1.82-1.18-2.72c-.93-1.58-.95-3.5-1-5.41,0-.21,0-.32,0-.54.09.2.09.31.18.4a4.78,4.78,0,0,0,.64,1.3,3.05,3.05,0,0,1,.75,1.29,3.14,3.14,0,0,0,.37.69c.2-.24.31-.47.52-.71a1.14,1.14,0,0,1,.12-.55,2,2,0,0,0,.58.46c.29.17.7,0,.91-.45,0-.11.11-.23.12-.33.41-.38.32-.69.14-1.2a13.45,13.45,0,0,1-.51-2c0-.1.11-.33,0-.43a.61.61,0,0,1,.13-.87,1.43,1.43,0,0,1,.12-.55,1.33,1.33,0,0,1-.59,0,2.24,2.24,0,0,0,.32-.69,1.85,1.85,0,0,0-.17-.72c.2,0,.41-.16.71-.21a12.93,12.93,0,0,1-.64-1.29h-.11c-.22.67-.53,1-1.12.9-1.63.76-3.32,1-4.77,2.48a26,26,0,0,1-2.47,1.94,2.51,2.51,0,0,0-.75,1.38c-.23.88-.27,1.74-.51,2.62s-.57,1.88-.9,2.77c0,.22-.22.35-.62.51a1.54,1.54,0,0,0-.93.87c-.43.8-.86,1.6-1.39,2.41,0,.11-.31.26-.41.27l-.7.1a2.14,2.14,0,0,0-1.12.78c-.21.24-.81.32-1.22.59-.21.13-.42.48-.72.62a1,1,0,0,1-.41.27c-.29-.28-.69-.12-1,0-.71.52-1.62,1-1.77,2-.11.33-.42.69-.54,1-.32.67-.55,1.34-.88,2.12A3.13,3.13,0,0,1,382.73,202.48Zm36.19-20.11c-.21.35-.51.5-.49,0a3.91,3.91,0,0,1,.11-.44l.11-.13C418.74,182,419,182.25,418.92,182.37Z"/><path class="cls-1" d="M150.67,287.39l-.24,0a5.61,5.61,0,0,1,.12,1.42c-.6.11-.6.11-.48-.51-.48,0-.72,0-1,.66,0,.36-.36.67-.6,1.08.36.05.6,0,1.08,0-.24.29-.36.43-.48.46-.36.18-.72.25-1.08.44-.6.11-.84.64-1.08,1.17a2.52,2.52,0,0,1-2.16,1.61,3.41,3.41,0,0,0-1.68,1,3.12,3.12,0,0,1-2,1.11c-.12-.1-.12-.1-.24,0-.6.84-1.56.66-2.4,1.06a4.64,4.64,0,0,1-2.52.24c-.36,0-.72-.46-1.2-.73a.35.35,0,0,0-.24-.08,9.88,9.88,0,0,0-3.24.26,1.64,1.64,0,0,1-.72-.1c-.24,0-.6,0-.84.16a11.26,11.26,0,0,1-3.71,1.3c0,.24,0,.48.11.58.6.37.48,1,.6,1.45s-.12,1.22-.12,1.7v1.92a32.3,32.3,0,0,1,.36,3.41c.12,1.3,0,2.53.12,3.82a36.36,36.36,0,0,1-.84,10.13,2.18,2.18,0,0,0-.12.86,6.89,6.89,0,0,1-1.68,3.2c-.6.83-1.32,1.57-1.08,2.72a.81.81,0,0,1-.48,1.18.52.52,0,0,0-.24.16c0,.6-.12.86-.72.74v.12c-.6.47-1.08.68-1.44-.21-.23.41-.23.53-.47.93a3.41,3.41,0,0,0-.84-.44c-.37-.29-.49.09-.73.38s-.6.83-.84,1.24a6,6,0,0,1-1.68,1.64,2.67,2.67,0,0,0-.59,1.31c-.12.14-.12.26-.24.65a5.4,5.4,0,0,1-.49-.75c-.11-.7-.11-1.54-.23-2.36a7.6,7.6,0,0,1-.12-1.65.74.74,0,0,0-1-.54c-1.33.13-1.8-.38-1.69-1.72,0-.24.12-.39,0-.48a1.22,1.22,0,0,0-.23-.8,1.07,1.07,0,0,0-1.32.13,8.6,8.6,0,0,1-2.64,1.46l-.24.05c-.25,1-1.21,1.55-1.68,2.36-.12,0-.12.14-.24.28-.84-.8,0-2.88,1.56-5.57.36.29.48,0,.72-.26a17.46,17.46,0,0,0,1.43-5c0-.12.25-.29.25-.53a.77.77,0,0,0,.24-.41c.12-1.46.23-2.92.35-4.38,0-.12-.12-.22-.12-.34l-.23,0c-.12.39-.12.75-.24,1,0-.48-.25-1-.25-1.63,0-2.88,0-5.76-.12-8.62-.11-1.9-.23-3.92-.23-6a29.18,29.18,0,0,1,0-3.24c-.6,0-.36-.53-.36-1s.36-1.15-.37-1.49c-.12,0,0-.24,0-.48,0-2.76.13-5.54.25-8.2a8.7,8.7,0,0,0-.37-1.74,17.62,17.62,0,0,1,0-5.52c.25-1.48.49-3,.73-4.33a2.65,2.65,0,0,1,1.43-2c.61-.23,1.33-.37,1.68.16a4.83,4.83,0,0,0,.85.92c0,.12.23.2.35.29a1.13,1.13,0,0,0,.25-.52c.47-1.06,1-2.11,1.44-3.16s2.52-.72,2.87-.07v.48a.81.81,0,0,0,.48,1c.6.25.72.58.49,1.23a14,14,0,0,0-.24,2.21.72.72,0,0,0,.24.43c.11,0,.23-.17.35-.31.84-1.36,1.68-2.72,2.41-4.06a.86.86,0,0,0,.11-.5c.24-.29.36-.79.6-.84a4.31,4.31,0,0,0,2.64-2.54,6.48,6.48,0,0,1,3.24-2.9,35.81,35.81,0,0,1,5-2,7.23,7.23,0,0,1,3.84-.61c.72.1,1.56-.18,2.28-.08a44.68,44.68,0,0,1,4.56,1.17,36.51,36.51,0,0,1,4.08,1.51,7.69,7.69,0,0,1,4,3.08,25.46,25.46,0,0,1,2.28,2.93,5.05,5.05,0,0,1,.48,4c-.24,1-.48,1.9-.72,2.9a2.81,2.81,0,0,0,.12,1.06,5.12,5.12,0,0,1,.72,3.23,11.57,11.57,0,0,1,0,2,4.77,4.77,0,0,1-1.2,2.75l-.12.14c-.12,1-1.2,1.43-1.68,2.36A5.08,5.08,0,0,0,150.67,287.39Zm-20.88-8.63c-.48.69-1,1.26-1.44,1.95a2.66,2.66,0,0,0,.12,3.22,1.5,1.5,0,0,0,1.92.35,13.36,13.36,0,0,0,3.36-1.72,8.32,8.32,0,0,0,1.92-1.56c.84-1,.48-2-.48-2.31a.52.52,0,0,1-.48-.15,20.45,20.45,0,0,0-1.56-1.63c-.36-.29-.6-.36-1,.07a7.45,7.45,0,0,1-.84.88c-1.08-.28-.36.67-.72,1C130.39,278.28,130.15,278.33,129.79,278.76Zm14.76,14.11c.36-.31.72-.85,1.32-.37-.12-.21-.36-.53-.48-.51a8.71,8.71,0,0,1-1,.67A.31.31,0,0,0,144.55,292.87Z"/><path class="cls-1" d="M158.59,320.11v-2.28a2.05,2.05,0,0,0-.36-1.49c-.36-.42-.24-1.28-.24-1.88l.36-4c.48-3.82-.48-7.24-.6-10.94s-.24-7.76-.24-11.6c-.12-2.5.24-5,.36-7.4a9,9,0,0,1,0-1.8c.36-1.51.72-3,1.09-4.65a20.89,20.89,0,0,0,.47-3.82,12.54,12.54,0,0,1,1.44-5,8.11,8.11,0,0,0,.84-2.08c.12-.38.36-.67.6-.47.36.41.84.2,1.32.23a2.71,2.71,0,0,1,1.92,1.43.31.31,0,0,1,.12.22c.24.07.36.17.6.25,0-.13.12-.39.12-.63s-.12-.46-.12-.7l.12,0c.36.41.72.94,1.2,1.57.12-.14.36-.18.6-.35.48-.33,1-.3,1,.18a4,4,0,0,1,.12,1.66c-.24.76.12,1.05.72,1.3v-.72c.36-.07.72-.26,1-.18a1.68,1.68,0,0,1,.72.7c.12.1-.12.38-.24.65a2.16,2.16,0,0,0-.24.4c.6.49.84,1.28,1.68,1.24.12,0,.24.2.24.32l.36,1.37a2.19,2.19,0,0,0,.12.82c.24-.41.36-.55.6-.95.12.69.12,1.17.24,1.75v1.92c0,.48.24.56.72.35,1.08-.45,2.16-.89,3.24-1.22s1.92-.73,2.88-1c.12-.14.36-.07.6-.11v.24c-.36.18-.6.35-1,.54s-.48.45-.24.77a.7.7,0,0,1,.24.43c-.12.14-.36.31-.48.21-1.08,0-1.8.95-2.64,1.23-.12,0-.24.16-.36.3a3.45,3.45,0,0,0,2.88.06,3.27,3.27,0,0,1,1.08,0c.12,0,.24.08.36,0a8.52,8.52,0,0,0,1.8-.22c.6-.11.72-.26.72-1,.12-1.58.12-3.14.24-4.85,0-1.08.24-2.33.36-3.55.36-2,.6-4.08.84-6.05.12-.63,0-1.2.12-1.71a9.9,9.9,0,0,1,.6-1.67c.24-.41.6-.48.72-.14.72-.26,1.32-.49,2.16-.77,0-.36.12-.75.12-1s.12-.5.48-.45c.12.1.24.07.48.15l.12.1c.48-.22,1.08-.33,1.32-.62s.6-.35.72-.13.24.31.36.53a.72.72,0,0,1,.24.43c.24-.16.6-.35.6-.47.12-.63.36-.55.84-.64.72-.14,1.32.23,2-.27a.37.37,0,0,1,.36.05c.36.17.72.46,1.08.64a1.14,1.14,0,0,1,.12.57c0,.48,0,.72.6.37.24-.29.6-.24,1-.42v.24c-.12,1,0,1.08.84,1s1,.3,1.2.73c0,.12,0,.36.12.46.6.24.72.1,1-.79.24.32.48.51.6.73a7.72,7.72,0,0,1,.48,2.43c-.12,1.47.12,2.87.12,4.43,0,1.92,0,3.85-.12,5.79-.12,2.43-.6,4.93-.48,7.43,0,.6-.12,1.34-.12,1.94a2.64,2.64,0,0,0,0,1v.72l-.12.14c.36.65-.24,1.37-.48,2.13-.12.27,0,.48,0,.85v1.44c-.12.62-.12,1.22-.24,1.85-.24.4-.24,1.12-.84,1.48a.14.14,0,0,1-.12.14c.72.1.84.2.48.87a4.68,4.68,0,0,0-.6,1.32,2.16,2.16,0,0,1,.48-.33v1.2c-.24-.08-.48,0-.72-.1-1.56,1.61-.6,2.75-.12,4,0,.12.24.07.36.17s.12.21.24.43a.56.56,0,0,1-.12.27c-.24,0-.36.06-.48,0s-.36-.18-.48.21a6.61,6.61,0,0,1-.48.93c-.24.41-.24.77-.48,1.17s-.36.67-.48,1.06a3.73,3.73,0,0,0-.36,1c-.36,1-.48,1.89-.84,2.92,0,.24-.48.57-.72.86l-.24.28a5.72,5.72,0,0,1-.84.64c-.6.24-.84.28-1,1a1.25,1.25,0,0,0-.36-.17,20.52,20.52,0,0,1-1.8,1.54,1.57,1.57,0,0,1-.72.26c-.12,0-.36.18-.48.21a5.63,5.63,0,0,1-2.76,1.72,4.65,4.65,0,0,0-1,.67,12.24,12.24,0,0,1-1.92,1.2c-.24.17-.6-.12-.72-.34-.6-.85-1.08-1.84-1.68-2.69a32.18,32.18,0,0,0-1.56-2.95c-1.2-1.69-1.32-3.83-1.44-6v-.6c.12.22.12.34.24.43a5.17,5.17,0,0,0,.84,1.41,3.26,3.26,0,0,1,1,1.38,4.44,4.44,0,0,0,.48.75c.24-.29.36-.55.6-.84a1.18,1.18,0,0,1,.12-.62,2.42,2.42,0,0,0,.72.46.86.86,0,0,0,1.08-.56c0-.13.12-.27.12-.39.48-.45.36-.79.12-1.34a14.29,14.29,0,0,1-.72-2.15c0-.12.12-.38,0-.48a.66.66,0,0,1,.12-1,1.48,1.48,0,0,1,.12-.63,1.67,1.67,0,0,1-.72,0c.12-.26.36-.55.36-.79a2,2,0,0,0-.24-.8c.24,0,.48-.21.84-.28a13.26,13.26,0,0,1-.84-1.4l-.12,0c-.24.77-.6,1.2-1.32,1.1-1.92,1-4,1.35-5.64,3.11a30.06,30.06,0,0,1-2.88,2.35,2.81,2.81,0,0,0-.84,1.6c-.24,1-.24,2-.48,3s-.6,2.15-1,3.18c0,.24-.24.41-.72.62a1.88,1.88,0,0,0-1.08,1.05c-.48.93-1,1.86-1.56,2.81,0,.13-.36.31-.48.34l-.84.16a2.65,2.65,0,0,0-1.32,1c-.24.28-1,.42-1.44.75-.24.17-.48.57-.84.76a1.15,1.15,0,0,1-.48.33c-.36-.29-.84-.08-1.2.11-.84.64-1.92,1.21-2,2.43-.12.38-.48.81-.6,1.19-.36.79-.6,1.56-1,2.47A3.33,3.33,0,0,1,158.59,320.11Zm42.72-25.29c-.24.4-.6.59-.6,0,0-.24.12-.38.12-.5l.12-.15C201.07,294.38,201.43,294.67,201.31,294.82Z"/><path class="cls-1" d="M255.43,273.22c-.48.81-.36,1,.36,1.5-.12.14-.36.18-.6.35.24.2.36.41.6.61a.86.86,0,0,0-.24,1.13c-.36.19-.36.31-.24.52a.31.31,0,0,1,.12.22,28.88,28.88,0,0,0,.12,3.23,5.78,5.78,0,0,0,.36,2.1,18.66,18.66,0,0,0,1,2.82,8.45,8.45,0,0,1,0,5.17c-.36,1.16-.6,2.16-.84,3.29a3.17,3.17,0,0,1-.84,1.73c-.12.14-.12.26-.24.4a1.19,1.19,0,0,1-1.08.69c-.36-.05-.48,0-.6.35-.36.67-.72,1.22-1.08,1.89a4.27,4.27,0,0,1-2.52,2.29,5.34,5.34,0,0,0-2.4,1.41.34.34,0,0,1,.12.22v.48l-.36.07a2.39,2.39,0,0,1-1.08-.28,1.26,1.26,0,0,0-1.56.06l-.72.5c.24.31.6,0,1.08-.09a1.35,1.35,0,0,1-1,.55.79.79,0,0,0-.72.49c-.12.15-.24.17-.48.34.12-.63-.36-.66-.72-.71a2.07,2.07,0,0,0-.24.53,1.74,1.74,0,0,1-.48-.51,3.87,3.87,0,0,1-.24-1.16,1,1,0,0,1-.12-.58c.12-1,.36-2.11.48-3.1a19.69,19.69,0,0,0,.12-4.59c-.12-.46-.12-.94-.24-1.4-.12-.94-.48-1.11-1.44-.81a25.19,25.19,0,0,1-3,.81,14.44,14.44,0,0,0-4.2,1.64,30.93,30.93,0,0,1-3,1.17,4.89,4.89,0,0,1-1.32.49c-.12.15-.36.07-.48.09-.6-.12-.72-.22-.24-.91a.85.85,0,0,0,.12-.51l-.6.12a3.3,3.3,0,0,1-.6.47,13.1,13.1,0,0,0-1.56-1.14,2,2,0,0,0-.24.76,8,8,0,0,0-.48,1.54,1.17,1.17,0,0,1-.84.76,1.72,1.72,0,0,0-1.08,1,4.08,4.08,0,0,1-1.68,2.13.63.63,0,0,0-.36.55,4.71,4.71,0,0,0-.24,1.36,1,1,0,0,1-.48.94.78.78,0,0,0-.48.33,2.31,2.31,0,0,1-1.56.78,4.1,4.1,0,0,0-1.08.44c-.12,0-.24.29-.24.29a.3.3,0,0,0,.36.29c.12.1.24.08.48,0s.72,0,1.08,0a5.44,5.44,0,0,1,1.2,0,.44.44,0,0,1-.12.26.65.65,0,0,0,.24.8c0,.12.12.22.12.34-.12.86.72,1.42.36,2.45-.24.29-.12.75-.12,1.11a.55.55,0,0,1-.48.57c.24-.53.12-.62-.24-.8-.24.05-.36-.17-.48-.39a5.56,5.56,0,0,1-1-.9l-.72-.58a1,1,0,0,0-1.44-.33,10,10,0,0,1-2.4.94l-.36.06c-.48.34-.72.26-.84-.2a37.75,37.75,0,0,1-1.44-5.37c-.24-1.4-.6-2.78-.84-4.17-.36-2-.48-4.12-.72-6.12-.12-2.26-.24-4.52-.36-6.66a25.17,25.17,0,0,1,0-3c.12-1.46.24-2.93.36-4.27.24-1.61.36-3.32.6-4.93A42,42,0,0,1,211,268c.36-1.15.6-2.28,1.08-3.45.48-1.54,1.2-3.12,1.8-4.55a8.69,8.69,0,0,1,1-1.75.14.14,0,0,1,.12-.14c.12-.26.36-.67,0-.72s-.48.21-.6.47c-.36.79-.84,1.73-1.2,2.64a1.6,1.6,0,0,1-.48.69.82.82,0,0,1-.48.33c0-.12-.12-.34-.12-.46a24.93,24.93,0,0,0,.84-2.68l.36-.79c.12-.15.12-.39.24-.41.48-.33.6-.72,1-1.26.48-.7,1.08-1.41,1.56-2.11.72-.73,1.32-1.45,1.92-2.17a2,2,0,0,0,.84-1.24,2,2,0,0,1,1.08-.93,2.2,2.2,0,0,0,1.32-.73,3.61,3.61,0,0,1,.72-.62c.12-.14.48-.21.48-.45.36-.55.84-.52,1.32-.61l4.32-.83a20.68,20.68,0,0,0,2.52-.84,7.38,7.38,0,0,1,1.56-.42c.12-.14.24,0,.48-.09-.36.31-.48.45-.72.62.84.32,1.56-.3,2.28-.55s1.2-.35,1.68-.57c.36-.06.72,0,1.08-.08a12.44,12.44,0,0,1,4.8.16,10.77,10.77,0,0,1,3,1.6,2.18,2.18,0,0,1,.6.24.86.86,0,0,1,.6.85c-.6,0-1.2-.49-2-.21.12.34.24.56.36.89-.48,0-.84-.08-1.2-.13a.69.69,0,0,1-.12.51c-.24,0-.48,0-.84,0v.12a5.38,5.38,0,0,0,1.32.35c.48,0,.84.2.6.84.48-.33.84-.64,1.08-.32s.6.36.72.7a5,5,0,0,0,.72,1.43c-.12,0-.24.17-.48.21.24.56.6,1.21.84,1.77.12,0,.12-.15.24-.17-.24-.44-.36-.89-.6-1.33.72-.14,1.32.59,1.44,1.77a1.27,1.27,0,0,0-.6.24.28.28,0,0,1,.12.21c.36.18.36.54.24.92s.12.58.12.94l.12,0a5.23,5.23,0,0,1,.48-1.18c.84.44.84.68,0,2.29.12.1.24.31.36.41a6.49,6.49,0,0,0,.84-.76c.36.65.72,1.19,1.08,1.72a1.22,1.22,0,0,1-.12,1.1,1.64,1.64,0,0,0-.72-.1v.72a2.16,2.16,0,0,0,.6.25c0-.12.12-.26.24-.53s-.12-.22-.12-.46c.24.08.36.18.48.15a2.14,2.14,0,0,0,.24-.52c.24.19.48.27.6.48.48.88.84,1.65,1.32,2.52a4.9,4.9,0,0,1,.6,1.45c.12.34,0,.6-.48.57a1.87,1.87,0,0,1-.6-.37,1.19,1.19,0,0,1-.48-.27l-.12.15a22.16,22.16,0,0,0,.48,2.55,6.73,6.73,0,0,0,.6,1.45,2.68,2.68,0,0,0,.6.73c.12,0,.12,0,.12-.14l-.48.09c-.12.5-.12.86.24,1,0,.12.12.22.12.34-.36.55.12.94.24,1.39a1.47,1.47,0,0,0,.24.68c.12.1.36.05.6,0v.12c-.24.16-.36.43-.6.59a.1.1,0,0,0,.12.1c.48-.21.84-.76,1.44-1.12l-.12,0A2.74,2.74,0,0,1,255.43,273.22ZM214,307c-.12-1.06-.6-1.93-.24-3.08-.6,0-.84,0-.84.64a1.31,1.31,0,0,0,.12.93c.12.46.24.8.36,1.26a1.25,1.25,0,0,1,.36.41A.52.52,0,0,1,214,307Zm5.16,5.87v.36a2.1,2.1,0,0,1-.72.38c-.12,0-.36-.17-.36-.29,0-.36.12-.63.12-1.11C218.59,312.45,219,312.63,219.19,312.82Zm10.92-32c-.36-.05-.6.24-.72.62a3.57,3.57,0,0,0-.12,1.11c-.12.62,0,.72.6.48a28.9,28.9,0,0,0,2.64-1.46,6,6,0,0,0,1-.78c-.12,0-.12,0-.12-.1-.24-.08-.6,0-.84-.08a6.75,6.75,0,0,0-.84.88c-.48-.15-.84-.2-.72-.71A1.64,1.64,0,0,1,230.11,280.8Zm.84-3.65a.45.45,0,0,1-.12.63,4,4,0,0,0-1.44,2.08c-.12.5.24.67.6.6a1.73,1.73,0,0,1,.72-.25,1.84,1.84,0,0,0,1.08-.69c.24-.29.48-.33,1-.3s1,.06,1.2-.23c.48-.33.6-.23.84,0a2.64,2.64,0,0,1,.72.46c-.36.79-1.32.38-1.8,1.07a4.82,4.82,0,0,0,2.52-1c-.12-.1-.24-.08-.36-.17a2.6,2.6,0,0,1,.72-.86,1.33,1.33,0,0,0,.36-.91,8.16,8.16,0,0,0-.12-1.66,12.5,12.5,0,0,0-1.32-4.2,1.41,1.41,0,0,0-1.56-.67,1.8,1.8,0,0,0-1.2,1.43,2.31,2.31,0,0,1-.84,1.61,7.39,7.39,0,0,0,.12-2.31,8.49,8.49,0,0,0-.84,1.24v.24c-.12.14-.12.38-.24.65-.24.64-.6,1.31-.84,2-.12.27-.12.51-.24.89C230.59,276.38,230.71,276.84,231,277.15Zm8.52-30.85c.84.2,1.44.69,2.28.65v-.12a8.84,8.84,0,0,0-1.8-1.1A1.21,1.21,0,0,1,239.47,246.3ZM252,266.42c-.12-.1-.24.17-.24.29s.12.22.36.29l.36-.43C252.19,266.5,252.07,266.4,252,266.42Zm.84-4c0-.12-.12-.22-.12-.46-.12.15-.24.17-.36.31s-.24.53.24.68A1.13,1.13,0,0,0,252.79,262.41Zm.24,6.81c-.12-.09-.24-.07-.36-.17a1.89,1.89,0,0,0,.24,1.64c.12.1.12.46.12.82a.91.91,0,0,1,.36.05A7.73,7.73,0,0,0,253,269.22Zm1.92-3.49.36.65c.12.34.24.56.36.9.12.7.24,1.64.36,2.34a4.92,4.92,0,0,1-.72.49c0-.36-.12-.69-.12-1.18-.12,0,0-.12,0-.24l-1.08-3a1.4,1.4,0,0,1-.12-.7c.12-.14.12-.14.24-.17C254.59,265,254.71,265.42,255,265.73Zm1.08,4.73c.6.12.48.63.6,1.09a4.33,4.33,0,0,0-.84-.2l.12,0A2.5,2.5,0,0,1,256,270.46Z"/><path class="cls-1" d="M277,236.85a2,2,0,0,1,1.56-1,1.2,1.2,0,0,1,1.2,1.1,12.4,12.4,0,0,1,.24,2.12v1.68a.54.54,0,0,0,.36.54,1,1,0,0,1,.36,1.13c0,.48,0,1,.84.8.12-.14.48.15.6.37.72,1.19,1.32,2.4,2,3.7a43,43,0,0,0,2.16,4.17c1.32,1.91,2.76,3.69,4.08,5.48.24.32.36.53.6.85a.76.76,0,0,0,.48.15.7.7,0,0,0,.36-.43c.12-.51.12-1.11.24-1.61l.36-1.15.12,0c-.24-.91.6-1.68.6-2.52a4.47,4.47,0,0,1,.36-1.15c0-.12,0-.36-.12-.34a3.48,3.48,0,0,1-.6-1.93,5.63,5.63,0,0,0-.24-1.52V247a5.78,5.78,0,0,0-.12-2.87,1.83,1.83,0,0,1,.48-1.66c.12-.14,0-.36,0-.48-.36-1.13.24-1.85,1.56-1.86-.12.14-.24.17-.12.26s0,.36.12.46.24-.16.36-.19a5.68,5.68,0,0,0,1.2-2.63c0-.12.24-.29.36-.43s.36.05.36.17c.24.55.48.39.6-.12a8.61,8.61,0,0,0,.6-1.56,1.87,1.87,0,0,1,.24-.4q1.08-.75.72-1.59c-.24-.31-.12-.57,0-1,.36-1.15,1.32-1.94,1.92-2.89a1.62,1.62,0,0,1,1.8-.59,1.67,1.67,0,0,1,1.08,1.72c-.12.39-.36.91-.24,1.25s.6.49,1,.66c.12-.26.36-.43.48-.69a.85.85,0,0,1,.12-.51c.24-.76.48-.93,1.08-.68a4.54,4.54,0,0,1,1.32.11,11,11,0,0,0,1.32.47c.36.29.72.46.72,1.06,0,.36.24.56.48.88-.6.23-1.08.56-1.08,1.28a4,4,0,0,1-.48.22c-.48.09-.6.47-.36.79a1.62,1.62,0,0,0,2,.45,1.48,1.48,0,0,1,1.8,1.47c0,.84-.12,1.7-.12,2.67v.12c.12.22.24.56.12.7a2.74,2.74,0,0,0-.12,2,4.86,4.86,0,0,1,0,1.32,7.71,7.71,0,0,1-.6,3.25,4.37,4.37,0,0,0-.48,1.3c-.12.14,0,.48,0,.72-.48.09-.48.21-.24.53s.36.29,0,.6a1.91,1.91,0,0,0-.12.86c.12.22.24.44.12.58a47.91,47.91,0,0,0-.84,7,4,4,0,0,0,0,1.2,7.65,7.65,0,0,1-.24,1.61c0,.49-.12,1-.12,1.59a1.58,1.58,0,0,1-.48,1.3c-.12,0-.24.29-.24.41-.12.38-.24.88-.36,1.27s-.12.86.24,1,.72.34.48.87v.24c.72.71.24,1.88.6,2.66.12.21,0,.6,0,.84,0,.48-.12,1.11-.12,1.59,0,.24-.12.62-.12.74-.24.41-.12.63.24.68s.84.08.72.71a.2.2,0,0,0,.24.19c.36.42.36.9,0,1.57a2.59,2.59,0,0,0-.24,1,4.51,4.51,0,0,1-.36,2.11,2.8,2.8,0,0,0,.48,2.56,1.27,1.27,0,0,1,0,1.57c-.12,0-.24.16-.36.19a5.11,5.11,0,0,1-.84-.21l-.48.1v1.56l-.24.29c0,.12-.24.4-.12.5s.36.42.6.37a1.92,1.92,0,0,1,1.68.16,1.6,1.6,0,0,0-.6.36l.24-.05a32.94,32.94,0,0,1-.48,3.35,3.58,3.58,0,0,1-.84,1.36c-.36.67-.72,1.22-1.2,2-.6-.61-1.2-1.09-1.8-1.7a.35.35,0,0,0-.24-.08c-.48,0-1.08,0-1.56-.06v-.24c-.12.14-.24.4-.36.55s-.36.18-.6.11v-.48a11.5,11.5,0,0,1,.48-1.9c-.24.17-.48.21-.6.36-1.08,1.4-2.64,1.46-4.08,2.21-.12,0-.24.05-.24-.07-.48-.15-.72.14-1,.66a16.54,16.54,0,0,1-1.2,2.28c-.36-.54-.72-.95-1.08-1.48-.6-.73-1.2-1.58-1.8-2.43a.8.8,0,0,0-.6-.13,3.68,3.68,0,0,0-.36.67.81.81,0,0,1-.24.41c0-.24-.12-.34-.12-.46a7,7,0,0,0,.6-1.32.8.8,0,0,0,.12-.5,11.5,11.5,0,0,0-.48-2.2c0-.24-.24-.43-.48-.63-.48-.39-1.08-.64-1.56-1a4.44,4.44,0,0,1-.84-1.28c-1.08-1.84-2-3.59-3-5.45a11.86,11.86,0,0,0-1.32-2.16,1.86,1.86,0,0,0-.48-.63c-.72,1.1-1,4.15-.24,5.1a1.25,1.25,0,0,0,0,1.93,20.26,20.26,0,0,0,2.64,3.23,4.54,4.54,0,0,0,1.8,1.34c.6.25.84.81,1.32,1.2.24.19.6.36.84.56a.77.77,0,0,1,.48.63,4.75,4.75,0,0,1-.24,1.25c-.12.38-.36.55-.72.38-.36-.42-.84-.81-1.2-1.22s-.6-1-1-1.38c-.6-.85-1.2-1.58-1.8-2.43-.12,0-.12-.1-.24-.2a24,24,0,0,0-1.92-1.44l-.36-.29c-.36-.17-.6,0-.72.38a3.29,3.29,0,0,1-.72,1.82c-.36.43-.6,1.08-1,1.51,0,.12-.12.26-.24.4-.72.86-1.44,1.72-2,2.56a1.81,1.81,0,0,1-1.08.8c-.24.05-.36.07-.48.22-.48.33-1,.78-1.56,1.13s-1.08.45-1.56.78a4.7,4.7,0,0,0-1.08.57,3.29,3.29,0,0,1-1.08.08,2.21,2.21,0,0,1-.72-.82c-.24-.2-.36-.3-.6,0l-.36.43c-.12,1.11-.84,1.6-1.8,2s-.84.4-1.08-.4c-.12-.1-.12-.34-.24-.32-.72-.1-.6-.85-.84-1.4l-.36-.29-.36.42c-.12.27,0,.49-.12.75a1.19,1.19,0,0,1,.48.27c.12.34.36.77.48,1.11a1,1,0,0,1-.12.63c0,.12-.24,0-.48.09s-.36,0-.6,0-.6-.25-.36-.65c.12-.15,0-.36,0-.6-.24.16-.48.09-.6.23a2.37,2.37,0,0,0-.48.45c-.36.43-.48.45-.72.14a14.59,14.59,0,0,0-1.08-1.48.38.38,0,0,1-.12-.34c.36-.55,0-.6-.6-.49.24-1.61.36-3.08.6-4.56.24-1.73.48-3.34.6-4.93a57.16,57.16,0,0,0,.6-11.07c-.12-3.22-.48-6.4-.6-9.63V255.59c0-1.57,0-3.25-.12-4.79v-.36c.72-2.19.36-4.29.72-6.52.12-.87.12-1.71.24-2.45a5.43,5.43,0,0,1,1.56-3.07,1.14,1.14,0,0,1,1.44-.27,1.22,1.22,0,0,0,1.56-.42c.12,0,.24-.17.36-.19.84,0,1.32-.61,2-1a6,6,0,0,1,1.92-.61c.24,0,.36.17.6.37s.48.51.84.8c.12.1.36,0,.6,0,1-.19,1-.19,1.44.44A2.71,2.71,0,0,0,277,236.85Zm-8.4,68.28a9.49,9.49,0,0,1-.24-4.53.75.75,0,0,1,1-.66c.6.12,1.08,0,1.56.54s1.08.4,1.68.53.48.27.48.75c-.36,1.63-1.56,2.7-2.76,3.89a.66.66,0,0,1-.36.19C269.23,306,268.75,305.71,268.63,305.13Zm7-66.08a5.56,5.56,0,0,0,.6-.23.76.76,0,0,0-.24-.68c0-.12-.24-.2-.48,0a9.6,9.6,0,0,1-1,.55c0-.37-.12-.7-.12-1.19a3.87,3.87,0,0,0-1.2,1c-.36.43-.36.55-.72.25-.12-.09-.24-.19-.36-.17,0,.72.12.94.84,1,1,.18,1.08,0,1.56-.89A3.91,3.91,0,0,0,275.59,239.05Zm1.32.59c.12.46.12.94.24,1.28C277.63,240.35,277.63,240,276.91,239.64Zm4.8,6.43c-.24-.07-.36-.29-.48-.51-.12,0-.12.14-.24.16a2,2,0,0,1,.48.64C281.47,246.24,281.59,246.21,281.71,246.07Zm.12.34c.12.09.12.34.24.43s.12,0,.24,0c0-.24-.12-.34-.12-.58C282.07,246.24,282,246.38,281.83,246.41Zm.6,2.77a8.47,8.47,0,0,0,.48-.93,10.57,10.57,0,0,0-1.08-.16Zm12-13.24c.84-.28,1.44.45,1.44,1.41a2.19,2.19,0,0,1-1.56,2.1c-.84.16-1.56-.66-1.56-1.75S293.35,236.14,294.43,235.94Zm12.36,57.14c.6-.24,1.08-.45,1-1.15l.12-.14a.84.84,0,0,0,.24-1.13c-.12-.1.12-.63-.36-.42-.24.05-.48.46-.72.62s-.12.39-.24.65.12.46.12.7c-.72-.1-1,.06-1.32.73a4.65,4.65,0,0,1,.84.81C306.55,293.48,306.67,293.1,306.79,293.08Zm1.68-55.61a.91.91,0,0,0-.36.31.21.21,0,0,0,.24.2c.12,0,.24-.17.48-.33C308.59,237.57,308.59,237.45,308.47,237.47Zm.12,52.86c.12-.39.12-.75.24-1.13C308.23,289.55,308.23,289.79,308.59,290.33ZM311,248c.12-.26.12-.5.24-.76a1.07,1.07,0,0,0-.36-.06,2,2,0,0,1-.24.77C310.75,247.88,310.87,248,311,248Z"/><path class="cls-1" d="M354,218.07c.72.11,1.44.33,2.16.43a.62.62,0,0,0,.48,0,11.16,11.16,0,0,1,5.88.69l1.08.15a2.61,2.61,0,0,1,1.32.72c.24.19,1,0,1.2.37s.36.66.72.71a6.13,6.13,0,0,1,1,.18c.84.32,1.56.66,2.28,1a4.83,4.83,0,0,1,1,.3c.72.34,1.44.69,2,1.05s1.44.21,2.16.2c.48,0,1-.07,1.56-.06l-.72.86c-.12.14-.48.21-.36.67a1.38,1.38,0,0,1-.36.19,6.52,6.52,0,0,0-1,.55,11.63,11.63,0,0,0,1.8.62c.24.07.36.17.36.53.36,1.62-.24,3.18-.84,4.86a8.87,8.87,0,0,0-.24,1.74,17.61,17.61,0,0,1-.84,4.14c-.36.79-.36,1.75-.72,2.67l-1.44,2.8c-.12.27-.48.46-.72.62a8.71,8.71,0,0,0-1,.67c.36.77,1.2.61,1.92.72v.24c-.36.07-.72.26-1.08.33,0,.24,0,.36.12.45a6.83,6.83,0,0,0-1,.43c-.12.26.12.7.12.94.12,0,.12-.14.24-.17a4.85,4.85,0,0,1,1.2-.1,6.77,6.77,0,0,1,1.44.32,15.5,15.5,0,0,1,1.56.55l.24.2c.36.77,1.08.88,1.68.16a23.62,23.62,0,0,0,1.8,1.71c.36.29.84.32,1.2.61a24,24,0,0,1,1.92,1.81c.24.2.12.7.12,1.06,0,.12-.12.39,0,.61a15.44,15.44,0,0,0,.6,2.29.83.83,0,0,1-.12.51,8.68,8.68,0,0,0-.6,3c.12.34-.12.74-.12,1.23,0,.24,0,.48.12.58a1.12,1.12,0,0,0,.84-.16c.48-.34.72-.26,1,.18.24.07.48.27.72.34a.89.89,0,0,1,.36.54c-.24.89-.48,1.53-.72,2.3l-.12,0a3.17,3.17,0,0,1-.12-1.07l-.36.07c-.12.39-.24.77-.36,1.28a1.58,1.58,0,0,1-.24.65,21.54,21.54,0,0,1-1,2.35,7.77,7.77,0,0,1-1,1.63c-.84,1.12-1.68,2.25-2.64,3.39a11.15,11.15,0,0,1-1.68,1.53,21.36,21.36,0,0,1-2.4,2c-.48.45-.84,1-1.32,1.46a3.25,3.25,0,0,1-1.08.93c0-.49-.36-.42-.6-.13l-4,2.92a2.14,2.14,0,0,1-.84.28c-.12,0-.36.19-.48.21v.12a1,1,0,0,0,.6.25c-.48.21-.72.5-1,.54a3.94,3.94,0,0,0-2,2,.52.52,0,0,0-.24.16c-1.2.83-2.4,1.55-3.48,2.23-.72.38-1.32.73-1.92,1a1.38,1.38,0,0,1-.6.23c-.12-.09-.36-.17-.36-.41s.12-.38.12-.51l.24-.28a.37.37,0,0,0-.36,0l-.84.15c-.36.07-1-.05-1.2.59,0,.12-.24.17-.36.19a2.64,2.64,0,0,0-1.2,1.07,3,3,0,0,1-1.32,1,16.38,16.38,0,0,1-5,1.8l-.36.06-.12-.09c.24-.05.36-.07.48-.21s.84,0,.6-.6c0-.12.24-.29.48-.57-.24,0-.48,0-.72,0a7.76,7.76,0,0,1-4.32.7l-.72.14a8.69,8.69,0,0,1-6.48-.82,12.91,12.91,0,0,0-4-1.54c-.6-.13-1.08-.4-1.8-.5a1.34,1.34,0,0,0-1,.18c-.36.31,0,.6.24.92.12,0,.12.1.12.22a1.59,1.59,0,0,1-.84-.33,13.13,13.13,0,0,1-4.2-3.42,32.6,32.6,0,0,1-4.68-8.63c-.72-2.15-1.32-4.44-2.16-6.69a17.16,17.16,0,0,1-1.32-4.33,8.09,8.09,0,0,1,.24-3.78,25.41,25.41,0,0,0,.36-3c.36-2.6.84-5.1,1.32-7.6a9.45,9.45,0,0,1,1-2.47c.48-1.17.84-2.33,1.32-3.62a18.6,18.6,0,0,1,3-4.67,7.62,7.62,0,0,0,1.44-2.2,29.56,29.56,0,0,1,5.76-7.49,60.5,60.5,0,0,1,8.52-6.68,27.5,27.5,0,0,1,3.84-2.42c1.56-.78,3.24-1.83,4.92-2a.85.85,0,0,0,.48-.21c.6-.48,1.32-1,1.92-1.45a2.41,2.41,0,0,1,1.92-.61,5.56,5.56,0,0,1,.6-.23,1.37,1.37,0,0,1-.24-.32c-.24-.19-.48-.27-.6-.37v-.24A4.15,4.15,0,0,1,354,218.07ZM327.67,286.7a3.47,3.47,0,0,1-1-1c-.12.14-.24.17-.24.29l1.08.88Zm1.68,1.37c-.36-.17-.6-.37-1-.54,0,.12-.12.14-.12.27.24.19.6.36.84.56Zm-.72-50.46c.36-.44.84-.77,1-1.39l-.24-.2c-.36.55-.6,1-1,1.51A.35.35,0,0,0,328.63,237.61Zm.24,38.26c.12.46.24,1,1,1.15A4.85,4.85,0,0,0,328.87,275.87Zm3.36,3.7c-.36.55-.12.87.72,1.07v-.72A2,2,0,0,0,332.23,279.57Zm1.56,1.27a.91.91,0,0,0-.36.31,1.37,1.37,0,0,1,.24.32c.24-.05.36-.19.72-.5A2,2,0,0,0,333.79,280.84ZM370,244.66c.24-.77.36-1.51-.36-1.86a1.39,1.39,0,0,1-.24-.67c-.24-1-.24-2.13-.48-3.17-.12-.82.24-1.73-.36-2.22-.72.26-1.32.49-1.92.73a1,1,0,0,0-.84.64c-.36.55-.6,1.08-1.2,1.19-1.56.3-2.76-.2-4.08-.43a20.27,20.27,0,0,0-2.64-.46c-1.08,0-2.16.41-3.12,0a.36.36,0,0,0-.24-.07,11.61,11.61,0,0,0-3.6,1.53,15.33,15.33,0,0,0-2.52,1.68,9.26,9.26,0,0,0-2.28,2c0,.12-.24.16-.36.31-.84.76-1.8,1.54-2.64,2.31a2,2,0,0,0-.36.55c0,.48-.24.64-.72.74a1.24,1.24,0,0,0-1.2.95,7.77,7.77,0,0,1-1,1.63,2,2,0,0,0-.36.55l-.6.71a.58.58,0,0,1,0,.49l-.72.86c-.36.43-.84.88-.84,1.48.12.1-.24.41-.36.55a1,1,0,0,0-.72.74c-.24,1-.6,2-.84,3.17a5.85,5.85,0,0,0,0,1.45v.48a7,7,0,0,1-.6,1.32,3.23,3.23,0,0,1-.48.82l-.24,0,.36.66a5.64,5.64,0,0,0,.84,1l.72.23c.12.09.36.05.36.17.24.56.36,1.13.6,1.57a14.22,14.22,0,0,0,2.4,4.61,11.86,11.86,0,0,0,4.44,3.13c.24.2.6.13.84.2a.14.14,0,0,1,.12-.14c-1.56-.43-2.28-1.74-3.24-2.88.36.17.72.46,1.2.74a23.82,23.82,0,0,0,2.88,1.74,4.8,4.8,0,0,0,2,.94A23.45,23.45,0,0,0,352,275c.24.08.48-.21.84-.28.84,0,1.8.14,2.76.08a2.53,2.53,0,0,0,2.28-1.4,2,2,0,0,1-.72-.34l-.12.14c.12.1.12.22.24.32-.24.16-.36.06-.6.11l-1.8-.74a.76.76,0,0,1-.48-.39c.24-.17.48-.58.72-.62.84.2,1.68.4,2.4.63l.12,0c.6.73,1.2.62,1.56-.29a1.85,1.85,0,0,0-1.56-.67c-.12,0-.24-.08-.48-.15a.38.38,0,0,0-.12-.34,8.2,8.2,0,0,0-2.76-1c-.24,0-.36,0-.72-.23a1.8,1.8,0,0,0,.6-.23,4,4,0,0,1,1.8.5,1.59,1.59,0,0,0,1.8-.1c0-.72-.6-.49-1.2-.62.84-.28,1.56-.41,2.28-.67a8.58,8.58,0,0,0,.84-.52c.6-1.32,1.2-2.52,1-3.8a.6.6,0,0,0-.6-.61,2.64,2.64,0,0,1-1.44-.09c-.72-.1-1.44-.33-2-.46V263c-1,.19-1.8.47-2.4-.38,0-.12-.24-.08-.36-.06-.84.16-1-.05-.72-.7-.84-.08-1.8,0-2.76-.08,0-.84-.36-1.14-.84-.93a17.34,17.34,0,0,1-2.4.7c-.12,0-.24-.07-.48,0,.6-.47,1.2-.71,1.56-1a2.17,2.17,0,0,0-.48-.51c-.36.79-1,.18-1.44.52l-.12-.1a3.23,3.23,0,0,1,.48-.82c-.6.24-1.32.38-2,.63,0,0-.12.27,0,.24a.7.7,0,0,0,.48.15c.24,0,.48-.21.84-.28-.72,1-1.8,1.07-2.52,1.93a2.09,2.09,0,0,1-2.28.55c-.24-.07-.6,0-.84-.08-1.44.16-2.16-1.27-1.44-2.74.48-.81.84-1.72,1.32-2.54,0-.12.12-.26.24-.52.12.21.36.29.48.39.36-.43.6-1,1-1.15,1.08-.57,2.16-1,3.24-1.46a39.12,39.12,0,0,1,3.72-1.55,11,11,0,0,0,1.68-.56c.12,0,.24-.05.24-.17.48-.45.84-.52,1.08-.33.48-.09.72-.25,1-.18a1.65,1.65,0,0,0,1.68-.68,1,1,0,0,0,1.2-.59c-.36.07-.84,0-1.32.13-1.2.35-2.52.84-3.84,1.21a4.56,4.56,0,0,1-1.32.13c-.24.05-.48-.15-.6-.12a8.83,8.83,0,0,0-1.56.54,7.45,7.45,0,0,1,1.08-.93c.24-.17.72-.14,1.08-.33.24,0,.48-.33.72-.38a11.24,11.24,0,0,1,1.92-.48c1,.06,1.92-.73,2.76-.65l.12,0c.36-.31.72-.74,1.08-.21,0,.12.12.1.24.08.72-.38,1.44-.64,2.16-1a1.73,1.73,0,0,1,.72-.25c.48-.1,1-.07,1.56-.18a10.61,10.61,0,0,0,2-.27v-.12c0-.36.12-.87.48-.93s.6.24.84.44a1.07,1.07,0,0,0,1.32.23l1.08-.57c-.12-.1-.36-.29-.48-.27l2.76-.52v-.49a3.65,3.65,0,0,0,1.08.4C369.67,245.7,369.91,245.17,370,244.66Zm-35,37.28a.52.52,0,0,0,.24-.16.7.7,0,0,0-.48-.39l-.48.33A3.07,3.07,0,0,0,335,281.94Zm.48.27a1.71,1.71,0,0,0,.84.45C336.19,282.07,336,281.88,335.47,282.21Zm1.68.29a.79.79,0,0,0-.48.21c.12.1.12.22.24.31a5,5,0,0,1,.72.11A4.49,4.49,0,0,0,337.15,282.5Zm1.56,11.39c-.12,0-.12-.22-.24-.2a1.15,1.15,0,0,1,.48-.33,20.86,20.86,0,0,1,2.4.15A3.44,3.44,0,0,1,338.71,293.89Zm7-2.16.84-.16v-.24l-.84.15Zm3.72-18.43a.14.14,0,0,1,.12-.14,2,2,0,0,1,.72.34.56.56,0,0,0-.12.27C349.87,273.57,349.63,273.5,349.39,273.3Zm5.16,15.05a3,3,0,0,1-1,.31v.24c.36-.07.6-.24,1-.3Zm6.6-50.19a4.93,4.93,0,0,0,1.32-.13v-.25c-.36.07-.84,0-1.32.14Zm3.36-.64c-.24.16-.48.21-.6.35s0,.36.12.7c.24-.41.48-.69.6-1C364.63,237.61,364.51,237.64,364.51,237.52Zm4.08,9c.12.34.24.43.36.77-.84-.08-1.2.47-1.56,1a3.62,3.62,0,0,0,3.12-.47C370.39,246.77,369.43,246.83,368.59,246.51Zm1.2,14.84a.67.67,0,0,0-1-.54c.36.53-.12.86-.48.93.12.22.36.54.24.68l-.72,1.95C368.59,264.11,369.79,262,369.79,261.35Zm6.6-13.92a2.42,2.42,0,0,1-.24.65,1.15,1.15,0,0,0-.36-.05c-.36-.05-.6-.13-.72-.35a.49.49,0,0,1-.36-.41c0-.12.36-.31.36-.31C375.79,246.82,376.27,246.85,376.39,247.43Zm-1.32,26.18c.6-.23.72-.38.6-1l-.72.86A.1.1,0,0,0,375.07,273.61Zm1.44-1.24c.72-.74,1.68-1.4,1.92-2.53a3.6,3.6,0,0,0,.12-1.11l-.72.86c-.36.67-.48,1.42-1.2,1.92l-.36.79C376.27,272.42,376.39,272.4,376.51,272.37Zm.48-25.05a2.46,2.46,0,0,0,.6.61C376.87,248.07,376.75,247.85,377,247.32Z"/><path class="cls-1" d="M436.39,238.79c-.48.82-.36,1,.36,1.5-.12.15-.36.19-.6.36.24.19.36.41.6.61a.86.86,0,0,0-.24,1.13c-.36.19-.36.31-.24.53a.31.31,0,0,1,.12.22,28.88,28.88,0,0,0,.12,3.23,5.8,5.8,0,0,0,.36,2.11,18.41,18.41,0,0,0,1,2.83,8.52,8.52,0,0,1,0,5.19c-.36,1.16-.6,2.17-.84,3.3a3.14,3.14,0,0,1-.84,1.73c-.12.15-.12.27-.24.41a1.19,1.19,0,0,1-1.08.69c-.36-.06-.48,0-.6.35-.36.67-.72,1.23-1.08,1.9a4.27,4.27,0,0,1-2.52,2.29,5.27,5.27,0,0,0-2.4,1.42.34.34,0,0,1,.12.22v.48l-.36.07a2.39,2.39,0,0,1-1.08-.28,1.26,1.26,0,0,0-1.56.05l-.72.5c.24.32.6,0,1.08-.08a1.3,1.3,0,0,1-1,.54.81.81,0,0,0-.72.5c-.12.15-.24.17-.48.33.12-.62-.36-.65-.72-.7a2.14,2.14,0,0,0-.24.52,1.53,1.53,0,0,1-.48-.51,3.87,3.87,0,0,1-.24-1.16,1,1,0,0,1-.12-.58c.12-1,.36-2.12.48-3.11a19.85,19.85,0,0,0,.12-4.61c-.12-.46-.12-.94-.24-1.4-.12-.94-.48-1.12-1.44-.81a27.25,27.25,0,0,1-3,.81,14.44,14.44,0,0,0-4.2,1.64,30.93,30.93,0,0,1-3,1.17,5.26,5.26,0,0,1-1.32.5c-.12.14-.36.06-.48.09-.6-.13-.72-.23-.24-.92a.85.85,0,0,0,.12-.51l-.6.12a3.3,3.3,0,0,1-.6.47,14.34,14.34,0,0,0-1.56-1.15,2,2,0,0,0-.24.77,8,8,0,0,0-.48,1.54,1.17,1.17,0,0,1-.84.76,1.73,1.73,0,0,0-1.08,1,4.08,4.08,0,0,1-1.68,2.13c-.24.17-.36.31-.36.55a4.84,4.84,0,0,0-.24,1.37,1,1,0,0,1-.48.94.78.78,0,0,0-.48.33,2.26,2.26,0,0,1-1.56.78,4.14,4.14,0,0,0-1.08.45c-.12,0-.24.28-.24.28a.31.31,0,0,0,.36.3c.12.09.24.07.48,0s.72,0,1.08,0a4.89,4.89,0,0,1,1.2,0,.44.44,0,0,1-.12.26.65.65,0,0,0,.24.8c0,.12.12.22.12.34-.12.87.72,1.43.36,2.46-.24.29-.12.75-.12,1.11a.56.56,0,0,1-.48.58c.24-.53.12-.63-.24-.8-.24,0-.36-.18-.48-.39a6,6,0,0,1-1-.91l-.72-.59a1,1,0,0,0-1.44-.33,10,10,0,0,1-2.4.94l-.36.07c-.48.33-.72.26-.84-.2a38.16,38.16,0,0,1-1.44-5.4c-.24-1.4-.6-2.78-.84-4.18-.36-2-.48-4.13-.72-6.14-.12-2.26-.24-4.53-.36-6.68a25.34,25.34,0,0,1,0-3c.12-1.47.24-2.94.36-4.29.24-1.61.36-3.32.6-4.94a42,42,0,0,1,1.68-7.31c.36-1.16.6-2.29,1.08-3.47.48-1.53,1.2-3.12,1.8-4.56a8.69,8.69,0,0,1,1-1.75.16.16,0,0,1,.12-.15c.12-.26.36-.67,0-.72s-.48.21-.6.48c-.36.79-.84,1.73-1.2,2.64a1.54,1.54,0,0,1-.48.69.79.79,0,0,1-.48.34c0-.13-.12-.34-.12-.46a25.23,25.23,0,0,0,.84-2.7l.36-.79c.12-.14.12-.38.24-.41.48-.33.6-.71,1-1.27s1.08-1.41,1.56-2.1c.72-.74,1.32-1.46,1.92-2.18a2.07,2.07,0,0,0,.84-1.24,1.93,1.93,0,0,1,1.08-.94,2.2,2.2,0,0,0,1.32-.73,3.31,3.31,0,0,1,.72-.62c.12-.14.48-.21.48-.45.36-.55.84-.53,1.32-.62l4.32-.82a20.68,20.68,0,0,0,2.52-.84,6.35,6.35,0,0,1,1.56-.42c.12-.15.24-.05.48-.09-.36.31-.48.45-.72.62.84.32,1.56-.3,2.28-.56s1.2-.35,1.68-.56.72,0,1.08-.09a12.44,12.44,0,0,1,4.8.17,10.77,10.77,0,0,1,3,1.6,2.16,2.16,0,0,1,.6.25.85.85,0,0,1,.6.85c-.6,0-1.2-.49-2-.21.12.34.24.56.36.89a11.31,11.31,0,0,1-1.2-.13.69.69,0,0,1-.12.51c-.24,0-.48,0-.84,0v.12a5.38,5.38,0,0,0,1.32.35c.48,0,.84.2.6.85.48-.33.84-.64,1.08-.33s.6.37.72.71a4.92,4.92,0,0,0,.72,1.43c-.12,0-.24.17-.48.22.24.55.6,1.21.84,1.77.12,0,.12-.15.24-.17-.24-.44-.36-.9-.6-1.33.72-.14,1.32.59,1.44,1.77a1.27,1.27,0,0,0-.6.24.31.31,0,0,1,.12.22c.36.17.36.53.24.92,0,.24.12.58.12.94l.12,0a5.23,5.23,0,0,1,.48-1.18c.84.44.84.68,0,2.29.12.1.24.32.36.42a6.51,6.51,0,0,0,.84-.77c.36.66.72,1.19,1.08,1.73a1.25,1.25,0,0,1-.12,1.11,1.51,1.51,0,0,0-.72-.11v.73a2.16,2.16,0,0,0,.6.25c0-.13.12-.27.24-.53s-.12-.22-.12-.46c.24.07.36.17.48.15a2.45,2.45,0,0,0,.24-.53c.24.19.48.27.6.49.48.87.84,1.65,1.32,2.52a5.08,5.08,0,0,1,.6,1.46c.12.34,0,.6-.48.57a1.87,1.87,0,0,1-.6-.37,1.19,1.19,0,0,1-.48-.27l-.12.15a22.71,22.71,0,0,0,.48,2.56,7,7,0,0,0,.6,1.46,3,3,0,0,0,.6.73c.12,0,.12,0,.12-.15l-.48.09c-.12.51-.12.87.24,1,0,.13.12.22.12.34-.36.56.12,1,.24,1.41a1.47,1.47,0,0,0,.24.68c.12.09.36.05.6,0v.12c-.24.17-.36.43-.6.6a.1.1,0,0,0,.12.1c.48-.21.84-.77,1.44-1.12l-.12,0A2.76,2.76,0,0,1,436.39,238.79ZM395,272.6c-.12-1.06-.6-1.93-.24-3.09-.6,0-.84,0-.84.64a1.37,1.37,0,0,0,.12,1c.12.46.24.8.36,1.25a1.3,1.3,0,0,1,.36.42A.6.6,0,0,1,395,272.6Zm5.16,5.9v.36a2.1,2.1,0,0,1-.72.38c-.12,0-.36-.17-.36-.29,0-.37.12-.63.12-1.11C399.55,278.13,399.91,278.3,400.15,278.5Zm10.92-32.12c-.36,0-.6.24-.72.62a3.6,3.6,0,0,0-.12,1.11c-.12.63,0,.73.6.49a26.81,26.81,0,0,0,2.64-1.47,5.48,5.48,0,0,0,1-.78c-.12,0-.12,0-.12-.1-.24-.08-.6,0-.84-.08a7.45,7.45,0,0,0-.84.88c-.48-.15-.84-.2-.72-.71A1.64,1.64,0,0,1,411.07,246.38Zm.84-3.66a.45.45,0,0,1-.12.63,4,4,0,0,0-1.44,2.08c-.12.51.24.68.6.61a1.73,1.73,0,0,1,.72-.25,1.84,1.84,0,0,0,1.08-.69c.24-.29.48-.33,1-.3s1,0,1.2-.23c.48-.34.6-.24.84,0a2.42,2.42,0,0,1,.72.46c-.36.8-1.32.38-1.8,1.07a4.82,4.82,0,0,0,2.52-1c-.12-.1-.24-.08-.36-.17a2.77,2.77,0,0,1,.72-.87,1.31,1.31,0,0,0,.36-.91,8.36,8.36,0,0,0-.12-1.67,12.63,12.63,0,0,0-1.32-4.21,1.41,1.41,0,0,0-1.56-.67,1.8,1.8,0,0,0-1.2,1.44,2.33,2.33,0,0,1-.84,1.61,7.44,7.44,0,0,0,.12-2.32,8.55,8.55,0,0,0-.84,1.25v.24c-.12.14-.12.38-.24.65-.24.65-.6,1.32-.84,2a8.29,8.29,0,0,0-.24.89C411.55,242,411.67,242.41,411.91,242.72Zm8.52-30.94c.84.2,1.44.69,2.28.65v-.12a9.31,9.31,0,0,0-1.8-1.11A1.24,1.24,0,0,1,420.43,211.78ZM432.91,232c-.12-.1-.24.16-.24.29s.12.21.36.29l.36-.43C433.15,232,433,232,432.91,232Zm.84-4c0-.12-.12-.22-.12-.46-.12.14-.24.16-.36.31s-.24.52.24.67A1.1,1.1,0,0,0,433.75,228Zm.24,6.83c-.12-.1-.24-.07-.36-.17a1.9,1.9,0,0,0,.24,1.64c.12.1.12.46.12.82a.84.84,0,0,1,.36.06A7.74,7.74,0,0,0,434,234.78Zm1.92-3.5.36.65c.12.34.24.56.36.9.12.7.24,1.64.36,2.35a5.8,5.8,0,0,1-.72.5c0-.37-.12-.71-.12-1.19-.12,0,0-.12,0-.24l-1.08-3.05a1.42,1.42,0,0,1-.12-.71c.12-.14.12-.14.24-.16C435.55,230.5,435.67,231,435.91,231.28ZM437,236c.6.13.48.63.6,1.09a5.22,5.22,0,0,0-.84-.2l.12,0A2.58,2.58,0,0,1,437,236Z"/><path class="cls-1" d="M458,202.32a2.05,2.05,0,0,1,1.56-1,1.21,1.21,0,0,1,1.2,1.1,12.63,12.63,0,0,1,.24,2.13v1.69a.54.54,0,0,0,.36.54,1,1,0,0,1,.36,1.14c0,.48,0,1,.84.8.12-.14.48.15.6.37.72,1.19,1.32,2.41,2,3.72a43.21,43.21,0,0,0,2.16,4.18c1.32,1.92,2.76,3.7,4.08,5.5.24.32.36.54.6.85a.48.48,0,0,0,.84-.28c.12-.5.12-1.11.24-1.61l.36-1.16.12,0c-.24-.92.6-1.69.6-2.53a4.54,4.54,0,0,1,.36-1.16c0-.12,0-.36-.12-.34a3.51,3.51,0,0,1-.6-1.94,5.63,5.63,0,0,0-.24-1.52v-.24a5.81,5.81,0,0,0-.12-2.88A1.82,1.82,0,0,1,474,208c.12-.15,0-.37,0-.49-.36-1.14.24-1.85,1.56-1.86-.12.14-.24.16-.12.26s0,.36.12.46.24-.16.36-.19a5.71,5.71,0,0,0,1.2-2.64c0-.12.24-.29.36-.43s.36,0,.36.17c.24.56.48.39.6-.12a8.61,8.61,0,0,0,.6-1.56,2.17,2.17,0,0,1,.24-.41q1.08-.75.72-1.59c-.24-.31-.12-.58,0-1,.36-1.16,1.32-2,1.92-2.91a1.63,1.63,0,0,1,1.8-.58,1.66,1.66,0,0,1,1.08,1.73c-.12.38-.36.91-.24,1.25s.6.49,1,.66c.12-.26.36-.43.48-.69a.83.83,0,0,1,.12-.51c.24-.77.48-.94,1.08-.69a4.91,4.91,0,0,1,1.32.11,11,11,0,0,0,1.32.48c.36.29.72.46.72,1.07,0,.36.24.55.48.87-.6.24-1.08.57-1.08,1.29a4,4,0,0,1-.48.22c-.48.09-.6.47-.36.79a1.61,1.61,0,0,0,2,.46,1.48,1.48,0,0,1,1.8,1.47c0,.84-.12,1.71-.12,2.68v.12c.12.22.24.56.12.7a2.76,2.76,0,0,0-.12,2,4.93,4.93,0,0,1,0,1.33,7.71,7.71,0,0,1-.6,3.25,4.48,4.48,0,0,0-.48,1.3c-.12.15,0,.49,0,.73-.48.09-.48.21-.24.53s.36.29,0,.6a2,2,0,0,0-.12.87c.12.22.24.44.12.58a48.18,48.18,0,0,0-.84,7.05,4.09,4.09,0,0,0,0,1.21,7.65,7.65,0,0,1-.24,1.61c0,.49-.12,1-.12,1.6a1.59,1.59,0,0,1-.48,1.3c-.12,0-.24.29-.24.41-.12.38-.24.89-.36,1.27-.24.53-.12.87.24,1s.72.35.48.88v.24c.72.71.24,1.89.6,2.67.12.22,0,.6,0,.84,0,.49-.12,1.11-.12,1.6,0,.24-.12.62-.12.74-.24.41-.12.63.24.68s.84.09.72.71a.21.21,0,0,0,.24.2c.36.41.36.9,0,1.57a2.59,2.59,0,0,0-.24,1,4.53,4.53,0,0,1-.36,2.12,2.82,2.82,0,0,0,.48,2.57,1.27,1.27,0,0,1,0,1.57c-.12,0-.24.17-.36.19a5.22,5.22,0,0,1-.84-.2l-.48.09v1.57l-.24.29c0,.12-.24.41-.12.51s.36.41.6.36a2,2,0,0,1,1.68.17c-.24,0-.36.19-.6.35l.24,0a32.94,32.94,0,0,1-.48,3.35,3.54,3.54,0,0,1-.84,1.37c-.36.67-.72,1.22-1.2,2-.6-.61-1.2-1.1-1.8-1.71a.35.35,0,0,0-.24-.08c-.48,0-1.08,0-1.56-.06v-.25c-.12.15-.24.41-.36.56s-.36.18-.6.11v-.48a11.61,11.61,0,0,1,.48-1.91c-.24.17-.48.22-.6.36-1.08,1.41-2.64,1.47-4.08,2.22-.12,0-.24,0-.24-.07-.48-.15-.72.13-1,.66a16,16,0,0,1-1.2,2.28c-.36-.53-.72-1-1.08-1.48-.6-.73-1.2-1.59-1.8-2.44a.8.8,0,0,0-.6-.13,3.49,3.49,0,0,0-.36.68c0,.12-.12.26-.24.4,0-.24-.12-.34-.12-.46a7,7,0,0,0,.6-1.32.8.8,0,0,0,.12-.5,11.44,11.44,0,0,0-.48-2.21c0-.24-.24-.44-.48-.63-.48-.4-1.08-.64-1.56-1a4.36,4.36,0,0,1-.84-1.29c-1.08-1.84-2-3.59-3-5.47a12.21,12.21,0,0,0-1.32-2.16,1.86,1.86,0,0,0-.48-.63c-.72,1.1-1,4.16-.24,5.11a1.26,1.26,0,0,0,0,1.94,20.33,20.33,0,0,0,2.64,3.24,4.65,4.65,0,0,0,1.8,1.35c.6.25.84.81,1.32,1.2.24.2.6.37.84.56a.79.79,0,0,1,.48.64,4.75,4.75,0,0,1-.24,1.25c-.12.39-.36.55-.72.38-.36-.42-.84-.81-1.2-1.22s-.6-1-1-1.39c-.6-.85-1.2-1.58-1.8-2.44-.12,0-.12-.1-.24-.19a21.86,21.86,0,0,0-1.92-1.45l-.36-.29c-.36-.18-.6,0-.72.37a3.29,3.29,0,0,1-.72,1.83c-.36.43-.6,1.08-1,1.51a.81.81,0,0,1-.24.41c-.72.86-1.44,1.72-2,2.56-.36.43-.6.72-1.08.81-.24,0-.36.07-.48.21-.48.33-1,.79-1.56,1.14s-1.08.45-1.56.78a4.7,4.7,0,0,0-1.08.57,3,3,0,0,1-1.08.08,2.16,2.16,0,0,1-.72-.83c-.24-.19-.36-.29-.6,0l-.36.43c-.12,1.11-.84,1.61-1.8,2s-.84.4-1.08-.4c-.12-.1-.12-.34-.24-.31-.72-.11-.6-.86-.84-1.41l-.36-.3-.36.43c-.12.27,0,.48-.12.75a1.19,1.19,0,0,1,.48.27c.12.34.36.78.48,1.12a1,1,0,0,1-.12.62c0,.12-.24.05-.48.09s-.36-.05-.6,0-.6-.25-.36-.66c.12-.14,0-.36,0-.6-.24.16-.48.09-.6.23a2.13,2.13,0,0,0-.48.46c-.36.43-.48.45-.72.13a15.81,15.81,0,0,0-1.08-1.48.38.38,0,0,1-.12-.34c.36-.56,0-.61-.6-.49.24-1.62.36-3.09.6-4.58.24-1.74.48-3.36.6-5a57.47,57.47,0,0,0,.6-11.1c-.12-3.24-.48-6.43-.6-9.67V221.1c0-1.56,0-3.25-.12-4.8v-.36c.72-2.19.36-4.3.72-6.54.12-.87.12-1.71.24-2.46a5.49,5.49,0,0,1,1.56-3.08,1.14,1.14,0,0,1,1.44-.27,1.2,1.2,0,0,0,1.56-.42c.12,0,.24-.17.36-.19.84,0,1.32-.61,2-1a6,6,0,0,1,1.92-.61c.24,0,.36.17.6.37s.48.51.84.8c.12.1.36.06.6,0,1-.18,1-.18,1.44.45A2.89,2.89,0,0,0,458,202.32Zm-8.4,68.49a9.52,9.52,0,0,1-.24-4.54.74.74,0,0,1,1-.66c.6.12,1.08,0,1.56.54s1.08.4,1.68.53.48.27.48.76c-.36,1.63-1.56,2.71-2.76,3.9a.75.75,0,0,1-.36.19C450.19,271.67,449.71,271.39,449.59,270.81Zm7-66.29a5.56,5.56,0,0,0,.6-.23.76.76,0,0,0-.24-.68c0-.12-.24-.2-.48,0a8,8,0,0,1-1,.54c0-.36-.12-.7-.12-1.18a3.85,3.85,0,0,0-1.2.95c-.36.43-.36.56-.72.26a.5.5,0,0,0-.36-.17c0,.72.12.94.84,1.05,1,.18,1.08,0,1.56-.91A3.65,3.65,0,0,0,456.55,204.52Zm1.32.6c.12.46.12.94.24,1.28C458.59,205.82,458.59,205.46,457.87,205.12Zm4.8,6.45a1,1,0,0,1-.48-.51c-.12,0-.12.14-.24.16a2.07,2.07,0,0,1,.48.63C462.43,211.73,462.55,211.71,462.67,211.57Zm.12.34c.12.09.12.34.24.43s.12,0,.24,0c0-.24-.12-.34-.12-.58C463,211.74,462.91,211.88,462.79,211.91Zm.6,2.78a8.46,8.46,0,0,0,.48-.94,10.85,10.85,0,0,0-1.08-.15Zm12-13.28c.84-.28,1.44.45,1.44,1.42a2.21,2.21,0,0,1-1.56,2.11c-.84.16-1.56-.67-1.56-1.76S474.31,201.62,475.39,201.41Zm12.36,57.33c.6-.23,1.08-.44,1-1.14l.12-.15a.84.84,0,0,0,.24-1.13c-.12-.1.12-.63-.36-.42-.24,0-.48.46-.72.62s-.12.39-.24.65.12.46.12.71c-.72-.11-1,.06-1.32.73a4.34,4.34,0,0,1,.84.81C487.51,259.15,487.63,258.77,487.75,258.74ZM489.43,203c-.12,0-.24.17-.36.31a.21.21,0,0,0,.24.2c.12,0,.24-.17.48-.34C489.55,203.06,489.55,202.94,489.43,203Zm.12,53c.12-.39.12-.75.24-1.14C489.19,255.21,489.19,255.45,489.55,256Zm2.4-42.51c.12-.27.12-.51.24-.77a1.07,1.07,0,0,0-.36-.06,2.06,2.06,0,0,1-.24.78C491.71,213.4,491.83,213.5,492,213.48Z"/></svg>