<svg id="Ebene_1" data-name="Ebene 1" xmlns="http://www.w3.org/2000/svg" viewBox="0 0 50 50.01"><defs><style>.cls-1,.cls-2{fill:#262626;}.cls-2{fill-rule:evenodd;}</style></defs><title>snapchat</title><path class="cls-1" d="M25,0A25,25,0,1,1,7.32,7.32,25,25,0,0,1,25,0ZM41.31,8.71A23.08,23.08,0,1,0,48.05,25a23,23,0,0,0-6.74-16.3Z"/><path class="cls-2" d="M37.51,31.28v0h0v0a2.31,2.31,0,0,0-.82-.29h0a6.88,6.88,0,0,1-3.31-2.44,8.73,8.73,0,0,1-1.17-2h0a.94.94,0,0,1,0-.86h0a2.5,2.5,0,0,1,1.14-.75h0a4.47,4.47,0,0,0,1.55-.79h0a.5.5,0,0,0,.23-.29.34.34,0,0,1,0-.11.68.68,0,0,0,0-.41h0a1.23,1.23,0,0,0-.52-.52h0a1.29,1.29,0,0,0-.94-.08h0a3.79,3.79,0,0,1-.82.24s0,0,0,0a2.41,2.41,0,0,1-.94,0,.59.59,0,0,0,0-.21h0c0-.56,0-1.14,0-1.76h0a16.44,16.44,0,0,0-.06-2.8v0a6.26,6.26,0,0,0-2.63-3.89A6.5,6.5,0,0,0,26,13.16h0a11.45,11.45,0,0,0-1.16-.07,7.19,7.19,0,0,0-4.38,1.42,6.8,6.8,0,0,0-2.14,2.78h0A7.68,7.68,0,0,0,18,20.71h0a21.07,21.07,0,0,1,0,2.24s0,0,0,0a3.4,3.4,0,0,1-1.1,0h0c-.26,0-.51-.16-.83-.24h0a.93.93,0,0,0-.82.18h0a.87.87,0,0,0-.47.7s0,0,0,.05h0a.8.8,0,0,0,.27.46,1.65,1.65,0,0,0,.3.21v0a9.34,9.34,0,0,0,1.73.75h0a1.22,1.22,0,0,1,.77.75,1.92,1.92,0,0,1-.3,1.31h0a8,8,0,0,1-2.63,3,6.49,6.49,0,0,1-1.93.87h0c-.15.07-.5.1-.69.42a.1.1,0,0,0-.05.08.58.58,0,0,0,.12.53.74.74,0,0,0,.3.23h0a6.73,6.73,0,0,0,1.79.63h0c.42.11.81.15,1.12.27l.12.31c.11.32.15.7.28,1.09a.33.33,0,0,0,.23.21.6.6,0,0,0,.43,0h0a7.11,7.11,0,0,1,2.82-.09h0a11,11,0,0,1,2.66,1.43h0a4.05,4.05,0,0,0,2.1.77h0a12,12,0,0,0,1.8,0h0a3.32,3.32,0,0,0,1.41-.47l0,0c1-.52,1.79-1.19,2.73-1.6h0a5,5,0,0,1,1.11-.13h0a16.18,16.18,0,0,1,2.31.13h.08a.39.39,0,0,0,.26-.14c.06-.07.06-.14.09-.18s0-.1,0,0,0,0,0-.06a3,3,0,0,1,.43-1.13.65.65,0,0,1,.48-.15h.06a9.17,9.17,0,0,0,1.82-.52s0,0,0,0a1.6,1.6,0,0,0,.72-.49h0a.51.51,0,0,0-.14-.75Z"/></svg>