<svg xmlns="http://www.w3.org/2000/svg" xmlns:xlink="http://www.w3.org/1999/xlink" viewBox="0 0 102.63 90.03"><defs><style>.cls-1{mask:url(#mask);filter:url(#luminosity-noclip-2);}.cls-2,.cls-8{mix-blend-mode:multiply;}.cls-2{fill:url(#linear-gradient);}.cls-3{isolation:isolate;}.cls-4{fill:url(#linear-gradient-2);}.cls-5{fill:#ffd610;}.cls-6{fill:#5dc2da;}.cls-7{fill:#59b9d0;}.cls-8{opacity:0.17;fill:url(#linear-gradient-3);}.cls-9{opacity:0.54;}.cls-10{mask:url(#mask-2);}.cls-11{fill:url(#linear-gradient-4);}.cls-12{filter:url(#luminosity-noclip);}</style><filter id="luminosity-noclip" x="53.93" y="-8237.4" width="48.7" height="32766" filterUnits="userSpaceOnUse" color-interpolation-filters="sRGB"><feFlood flood-color="#fff" result="bg"/><feBlend in="SourceGraphic" in2="bg"/></filter><mask id="mask" x="53.93" y="-8237.4" width="48.7" height="32766" maskUnits="userSpaceOnUse"><g class="cls-12"/></mask><linearGradient id="linear-gradient" x1="306.76" y1="45.4" x2="355.46" y2="45.4" gradientTransform="matrix(-1, 0, 0, 1, 409.39, 0)" gradientUnits="userSpaceOnUse"><stop offset="0" stop-color="#fff"/><stop offset="0.26" stop-color="#c1c1c1"/><stop offset="0.86" stop-color="#262626"/><stop offset="1"/></linearGradient><linearGradient id="linear-gradient-2" x1="375.96" y1="53.64" x2="375.96" y2="14.05" gradientTransform="matrix(-1, 0, 0, 1, 409.39, 0)" gradientUnits="userSpaceOnUse"><stop offset="0" stop-color="#ffde00"/><stop offset="0.31" stop-color="#ffd800"/><stop offset="0.73" stop-color="#ffc700"/><stop offset="1" stop-color="#ffb800"/></linearGradient><linearGradient id="linear-gradient-3" x1="371.41" y1="87.17" x2="344.57" y2="40.68" gradientTransform="matrix(-1, 0, 0, 1, 409.39, 0)" gradientUnits="userSpaceOnUse"><stop offset="0" stop-color="#fff"/><stop offset="1" stop-color="#003845"/></linearGradient><filter id="luminosity-noclip-2" x="53.93" y="31.4" width="48.7" height="28" filterUnits="userSpaceOnUse" color-interpolation-filters="sRGB"><feFlood flood-color="#fff" result="bg"/><feBlend in="SourceGraphic" in2="bg"/></filter><mask id="mask-2" x="53.93" y="31.4" width="48.7" height="28" maskUnits="userSpaceOnUse"><g class="cls-1"><path class="cls-2" d="M53.94,33.69c9.16,8.29,24,2.11,34.94,7.12,5.63,2.58,9.37,6.09,11.4,10.81a32.29,32.29,0,0,1,2.32,7.78,20.7,20.7,0,0,0-.47-5.85c-1.9-8.32-6.89-15.4-16-18.85-13.08-5-22.59,1.84-31.45-3.3A3.79,3.79,0,0,0,53.94,33.69Z"/></g></mask><linearGradient id="linear-gradient-4" x1="306.76" y1="45.4" x2="355.46" y2="45.4" gradientTransform="matrix(-1, 0, 0, 1, 409.39, 0)" gradientUnits="userSpaceOnUse"><stop offset="0" stop-color="#fff"/><stop offset="1" stop-color="#f2f2f2"/></linearGradient></defs><title>sunandwaves</title><g class="cls-3"><g id="Ebene_1" data-name="Ebene 1"><path class="cls-4" d="M13.63,33.85a19.8,19.8,0,1,0,19.79-19.8A19.79,19.79,0,0,0,13.63,33.85Z"/><path class="cls-5" d="M33.74,11.11C35.49,8.8,41.93,0,33.69,0,26.44,0,32.29,8.65,33.74,11.11Z"/><path class="cls-5" d="M33.74,56.69C35.49,59,41.93,67.8,33.69,67.8,26.44,67.8,32.29,59.15,33.74,56.69Z"/><path class="cls-5" d="M39.59,12.52c1.22-1,5.76-4.6,1.51-5.74C37.36,5.77,39.18,11.05,39.59,12.52Z"/><path class="cls-5" d="M28,55.43c.59,1.43,2.69,6.86-1.56,5.72C22.7,60.15,26.92,56.49,28,55.43Z"/><path class="cls-5" d="M45.16,14.08C47.83,13,57.8,8.56,50.67,4.44,44.39.81,45.13,11.23,45.16,14.08Z"/><path class="cls-5" d="M22.37,53.56c.36,2.88,1.53,13.71-5.6,9.6C10.48,59.53,19.88,55,22.37,53.56Z"/><path class="cls-5" d="M49.52,18.23C51.05,18,56.81,17.12,53.7,14,51,11.27,49.9,16.75,49.52,18.23Z"/><path class="cls-5" d="M18,49.59c-.21,1.54-1.11,7.29-4.22,4.18C11.07,51,16.55,50,18,49.59Z"/><path class="cls-5" d="M53.56,22.37c2.87.36,13.71,1.53,9.6-5.6C59.53,10.48,55,19.88,53.56,22.37Z"/><path class="cls-5" d="M14.08,45.16C13,47.83,8.55,57.8,4.44,50.67.81,44.39,11.23,45.13,14.08,45.16Z"/><path class="cls-5" d="M55.26,28.14c1.44.58,6.87,2.68,5.73-1.57C60,22.83,56.33,27.05,55.26,28.14Z"/><path class="cls-5" d="M12.31,39.56c-1,1.22-4.6,5.76-5.74,1.51C5.57,37.32,10.84,39.15,12.31,39.56Z"/><path class="cls-5" d="M56.69,33.74C59,35.49,67.8,41.93,67.8,33.69,67.8,26.43,59.15,32.29,56.69,33.74Z"/><path class="cls-5" d="M11.11,33.74C8.8,35.49,0,41.93,0,33.69,0,26.43,8.65,32.29,11.11,33.74Z"/><path class="cls-5" d="M55.29,39.59c.94,1.22,4.59,5.76,5.73,1.51C62,37.36,56.75,39.18,55.29,39.59Z"/><path class="cls-5" d="M12.37,28c-1.43.59-6.86,2.69-5.72-1.56C7.65,22.7,11.31,26.91,12.37,28Z"/><path class="cls-5" d="M53.72,45.16c1.12,2.67,5.52,12.64,9.64,5.51C67,44.38,56.57,45.13,53.72,45.16Z"/><path class="cls-5" d="M14.24,22.37c-2.88.36-13.71,1.53-9.6-5.6C8.27,10.48,12.84,19.88,14.24,22.37Z"/><path class="cls-5" d="M49.57,49.52c.22,1.54,1.11,7.29,4.22,4.18C56.53,51,51.05,49.9,49.57,49.52Z"/><path class="cls-5" d="M18.21,18c-1.54-.21-7.29-1.1-4.18-4.22C16.77,11.07,17.83,16.55,18.21,18Z"/><path class="cls-5" d="M45.43,53.56c-.36,2.87-1.53,13.71,5.6,9.59C57.32,59.53,47.92,55,45.43,53.56Z"/><path class="cls-5" d="M22.64,14.08C20,13,10,8.56,17.13,4.44,23.42.81,22.67,11.23,22.64,14.08Z"/><path class="cls-5" d="M39.66,55.26C39.08,56.7,37,62.13,41.22,61,45,60,40.75,56.33,39.66,55.26Z"/><path class="cls-5" d="M28.24,12.31c-1.22-1-5.76-4.6-1.51-5.74C30.48,5.57,28.65,10.84,28.24,12.31Z"/><path class="cls-6" d="M3,73.35c6.83-5.41,18-4.77,25.74-1.23,11.31,4.71,21,14.56,33.76,16C78.8,89.73,90.12,85.55,98.6,72.65c3.19-4.85,5-12.9,3.54-19.09-1.9-8.32-6.9-15.4-16-18.86-13.08-5-22.6,1.84-31.46-3.3-2.8,4.83,3.38,3.11,4.1,6.68.3,2.62-5.67,1.69-4.16,5.36,2.29,2.07,4.28-2.92,6.6-1.43,3.3,2.12-1.4,4.17.56,5.89,2.25,1.9,4-4.84,6.24-2.25,1.89,2.12-6.81,6.83-2.27,9,3.76,1.76,3.1-6.94,6.37-6.48,2.56.73.7,4.47.46,5.66-.7,4.24,2.13,6.59,4.49,2.12.71-1.66-1-4.49,1.65-5.19,1.42-.47,3.29,1.17,3.76,2.12,2.36,4.48.36,12-4.12,15.67-12.92,10.54-26.27,3.87-39.12-2.24-7.07-3.36-13.32-5-20.15-4.24A21.5,21.5,0,0,0,3,73.35Z"/><path class="cls-7" d="M5.62,74.65c9.37-.32,16.57,5.55,22,8.75,6.36,3.74,21.2,8.51,30.48,5.86-7.51-.83-14.33-5-17.58-7C36.77,80,33.2,77.24,27.85,75,19.36,71.52,10.75,72.38,5.62,74.65Z"/><path class="cls-7" d="M56,25.32c2.4-.6,1.29,3.84,6.11,5.7C57.14,33.05,52.47,26.21,56,25.32Z"/><path class="cls-7" d="M54.82,51.11c3.14,1.78,3.34-4.06,4.58-6.41C57.73,46.35,51.11,48.34,54.82,51.11Z"/><path class="cls-8" d="M6.18,68.81c8.12-6.3,18-5.08,26.16-1.18,4.36,2.05,8.3,4.89,12,7.2a85.55,85.55,0,0,0,12.1,6.35c9.36,4,23.37,2.84,30.08-5.48C90,71.64,91,68.18,90.86,63c-.14-7.14-5.2-11.95-11.35-12.3a4.61,4.61,0,0,1,2.93,2.18c2.37,4.48.37,12-4.12,15.67C65.4,79.06,52.06,72.38,39.21,66.29c-7.08-3.37-13.33-5-20.16-4.26A21.83,21.83,0,0,0,6.18,68.81Z"/><g class="cls-9"><g class="cls-10"><path class="cls-11" d="M53.94,33.69c9.16,8.29,24,2.11,34.94,7.12,5.63,2.58,9.37,6.09,11.4,10.81a32.29,32.29,0,0,1,2.32,7.78,20.7,20.7,0,0,0-.47-5.85c-1.9-8.32-6.89-15.4-16-18.85-13.08-5-22.59,1.84-31.45-3.3A3.79,3.79,0,0,0,53.94,33.69Z"/></g></g></g></g></svg>