<svg id="Ebene_1" data-name="Ebene 1" xmlns="http://www.w3.org/2000/svg" viewBox="0 0 49.99 50"><defs><style>.cls-1,.cls-2{fill:#262626;}.cls-2{fill-rule:evenodd;}</style></defs><title>twitter</title><path class="cls-1" d="M25,0A25,25,0,1,1,7.32,7.32,25,25,0,0,1,25,0ZM41.28,8.7A23,23,0,1,0,48,25,23,23,0,0,0,41.28,8.7Z"/><path class="cls-2" d="M37.75,17.22a11.15,11.15,0,0,1-3,.81,5.16,5.16,0,0,0,2.31-2.86,10.88,10.88,0,0,1-3.33,1.26,5.26,5.26,0,0,0-9.07,3.51,5.6,5.6,0,0,0,.15,1.18A14.85,14.85,0,0,1,14,15.73a5.25,5.25,0,0,0-.72,2.59,5.15,5.15,0,0,0,2.32,4.29A5.09,5.09,0,0,1,13.26,22v.07a4.77,4.77,0,0,0,.36,1.85,5.19,5.19,0,0,0,3.85,3.18,5,5,0,0,1-1.39.2,5.35,5.35,0,0,1-1-.11A5.27,5.27,0,0,0,20,30.76,10.55,10.55,0,0,1,13.49,33c-.43,0-.83,0-1.26-.06a15.16,15.16,0,0,0,8,2.31A14.55,14.55,0,0,0,34.8,23.66a13.93,13.93,0,0,0,.35-3.11v-.66a11,11,0,0,0,2.6-2.67Z"/></svg>