<svg id="Ebene_1" data-name="Ebene 1" xmlns="http://www.w3.org/2000/svg" viewBox="0 0 50 50"><defs><style>.cls-1,.cls-2{fill:#262626;}.cls-2{fill-rule:evenodd;}</style></defs><title>whatsapp</title><path class="cls-1" d="M25,0A25,25,0,1,1,7.32,7.32,25,25,0,0,1,25,0ZM41.29,8.71A23,23,0,1,0,48.05,25,22.94,22.94,0,0,0,41.29,8.71Z"/><path class="cls-2" d="M37.75,24.36a12.53,12.53,0,0,0-25-.23,3.14,3.14,0,0,0,0,.54,12.45,12.45,0,0,0,1.8,6.42l-2.27,6.67,7-2.2a12.61,12.61,0,0,0,6,1.54A12.48,12.48,0,0,0,37.76,24.67c0-.11,0-.2,0-.31ZM31,27.19c-.32-.16-1.82-.9-2.09-1s-.5-.16-.71.16a11.34,11.34,0,0,1-1,1.18c-.18.22-.36.23-.65.1a8,8,0,0,1-2.48-1.53A8.88,8.88,0,0,1,22.36,24c-.17-.33,0-.47.12-.65a3.49,3.49,0,0,0,.47-.52.76.76,0,0,0,.11-.14,2.53,2.53,0,0,0,.2-.36.5.5,0,0,0,0-.53c-.06-.15-.68-1.67-.94-2.27s-.52-.51-.68-.51-.39,0-.6,0a1,1,0,0,0-.81.39A3.35,3.35,0,0,0,19.28,23a6.86,6.86,0,0,0,1.08,2.12,12.45,12.45,0,0,0,5.25,4.59c3.14,1.22,3.14.81,3.69.77A3.05,3.05,0,0,0,31.38,29a2.51,2.51,0,0,0,.17-1.45,1.78,1.78,0,0,0-.58-.33Zm-5.75,7.94a10.43,10.43,0,0,1-5.78-1.73l-4.05,1.29,1.3-3.89a10.43,10.43,0,0,1-2-6.13,8.44,8.44,0,0,1,.05-1,10.54,10.54,0,0,1,21,.19,7.58,7.58,0,0,1,0,.82A10.51,10.51,0,0,1,25.22,35.13Z"/></svg>