<svg id="Ebene_1" data-name="Ebene 1" xmlns="http://www.w3.org/2000/svg" viewBox="0 0 49.99 50"><defs><style>.cls-1,.cls-2{fill:#262626;}.cls-2{fill-rule:evenodd;}</style></defs><title>youtube</title><path class="cls-1" d="M25,0A25,25,0,1,1,7.32,7.32,25,25,0,0,1,25,0ZM41.28,8.7A23.06,23.06,0,1,0,48,25,23,23,0,0,0,41.28,8.7Z"/><path class="cls-2" d="M37.5,19.68a6,6,0,0,0-1-2.64,3.63,3.63,0,0,0-2.55-1.14c-3.57-.26-8.92-.26-8.92-.26h0s-5.34,0-8.91.26A3.62,3.62,0,0,0,13.51,17a6,6,0,0,0-1,2.64A41.24,41.24,0,0,0,12.22,24v2a40.48,40.48,0,0,0,.26,4.29,6.17,6.17,0,0,0,1,2.66,4.21,4.21,0,0,0,2.82,1.14c2,.2,8.68.27,8.68.27s5.35,0,8.92-.27A3.59,3.59,0,0,0,36.48,33a6.11,6.11,0,0,0,1-2.66A42.08,42.08,0,0,0,37.75,26V24a42.86,42.86,0,0,0-.25-4.29Zm-8.24,5-6.91,3.72V21l3.13,1.7Z"/></svg>